{"glyphs":{"0":{"ha":1013,"x_min":0,"x_max":0,"o":"m 503 972 b 197 856 389 972 281 932 b 43 478 64 735 43 558 b 500 -15 43 181 256 -15 b 753 57 601 -15 694 21 b 969 478 872 132 969 285 b 503 972 969 754 783 975 z m 499 888 b 868 482 694 892 868 754 b 504 71 868 206 688 71 b 143 476 326 71 143 200 b 499 888 143 740 300 882 z "},"1":{"ha":1013,"x_min":0,"x_max":0,"o":"m 229 689 b 485 754 369 688 426 713 l 485 0 l 579 0 l 579 961 l 517 961 b 350 782 497 900 474 817 b 229 768 300 768 264 768 z "},"2":{"ha":1013,"x_min":0,"x_max":0,"o":"m 931 83 l 249 83 b 447 167 315 110 382 136 b 715 321 535 208 638 265 b 918 651 782 369 918 472 b 800 889 918 782 844 854 b 525 975 729 944 643 975 b 232 885 369 975 278 922 b 101 619 122 794 107 671 l 196 606 b 306 832 200 671 207 764 b 521 892 364 872 446 892 b 819 650 721 892 819 774 b 665 388 819 507 703 417 b 101 90 553 301 388 221 l 101 0 l 931 0 z "},"3":{"ha":1013,"x_min":0,"x_max":0,"o":"m 414 460 l 571 460 b 778 413 632 460 717 457 b 844 283 824 379 844 332 b 768 132 844 228 817 171 b 524 64 713 89 621 64 b 326 103 456 64 389 75 b 172 271 233 147 196 217 l 79 242 b 228 60 106 189 142 117 b 517 -17 310 6 418 -17 b 826 67 588 -17 726 -6 b 940 283 907 126 940 208 b 747 508 940 417 840 489 b 728 513 740 510 735 511 b 758 519 738 515 749 517 b 901 707 850 549 901 625 b 774 915 901 781 864 863 b 519 972 693 961 588 972 b 188 847 299 972 211 874 b 108 704 142 796 126 753 l 199 672 b 254 790 206 700 217 746 b 519 890 319 865 421 890 b 807 710 685 890 807 828 b 747 589 807 649 776 613 b 551 542 690 543 624 542 l 414 542 z "},"4":{"ha":1013,"x_min":0,"x_max":0,"o":"m 47 339 l 47 257 l 651 257 l 651 0 l 744 0 l 744 257 l 951 257 l 951 339 l 744 339 l 744 965 l 642 965 z m 651 339 l 158 339 l 651 861 z "},"5":{"ha":1013,"x_min":0,"x_max":0,"o":"m 103 438 l 189 438 b 507 592 218 476 304 592 b 840 336 703 592 840 488 b 489 65 840 176 686 65 b 214 164 414 65 286 85 b 158 267 181 200 168 239 l 64 240 b 178 82 97 154 146 107 b 500 -15 250 25 365 -15 b 935 336 779 -15 935 153 b 522 674 935 522 778 674 b 317 638 451 674 382 664 b 196 553 256 611 225 582 l 215 878 l 868 878 l 868 956 l 133 956 z "},"6":{"ha":1013,"x_min":0,"x_max":0,"o":"m 938 761 b 814 892 904 808 869 854 b 538 971 747 936 650 971 b 167 788 415 971 263 929 b 79 536 111 704 89 613 b 74 443 76 506 74 474 b 168 139 74 321 108 213 b 529 -15 263 21 413 -15 b 961 322 785 -15 961 135 b 804 572 961 431 896 521 b 536 636 736 611 639 636 b 264 571 467 636 347 624 b 163 457 219 543 182 504 b 182 599 164 497 165 531 b 279 786 196 649 217 724 b 529 885 367 875 474 885 b 850 721 733 885 817 767 z m 519 551 b 806 463 604 553 732 536 b 867 317 839 428 867 376 b 524 71 867 197 758 71 b 301 129 436 71 356 92 b 201 319 240 174 201 244 b 519 551 201 486 372 547 z "},"7":{"ha":1013,"x_min":0,"x_max":0,"o":"m 469 0 b 489 171 471 50 472 93 b 936 886 556 474 767 763 l 936 956 l 100 956 l 100 872 l 799 872 b 410 256 703 772 510 569 b 364 0 368 126 365 53 z "},"8":{"ha":1013,"x_min":0,"x_max":0,"o":"m 690 501 b 713 506 697 503 704 504 b 906 713 900 544 906 683 b 510 972 906 846 772 972 b 111 710 279 972 111 872 b 322 501 111 608 183 522 b 68 264 183 481 68 390 b 289 14 68 154 147 58 b 518 -15 349 -4 429 -15 b 768 29 594 -15 685 -7 b 943 264 907 90 943 196 b 726 494 943 378 847 465 b 690 501 714 497 701 500 z m 493 894 b 813 715 660 900 813 844 b 714 579 813 647 772 604 b 514 544 661 557 586 544 b 313 579 428 544 351 564 b 210 715 286 590 210 624 b 493 894 210 815 303 889 z m 485 454 b 847 265 686 461 847 396 b 510 64 847 129 688 64 b 164 265 318 64 164 142 b 485 454 164 374 274 447 z "},"9":{"ha":1013,"x_min":0,"x_max":0,"o":"m 101 179 b 228 57 131 142 164 97 b 490 -14 286 19 381 -14 b 953 504 675 -14 953 85 b 503 972 953 797 781 972 b 61 631 229 972 61 810 b 472 319 61 463 211 319 b 763 393 565 319 685 342 b 865 518 808 424 844 467 b 819 276 864 435 853 353 b 497 69 761 140 636 69 b 188 224 372 69 263 122 z m 513 886 b 760 796 586 886 689 871 b 821 640 799 754 821 697 b 475 406 821 478 644 406 b 157 636 275 406 157 497 b 513 886 157 783 308 889 z "}," ":{"ha":521,"x_min":0,"x_max":0,"o":""},"!":{"ha":435,"x_min":0,"x_max":0,"o":"m 275 278 l 293 558 l 293 981 l 194 981 l 194 588 l 211 278 z m 297 138 l 190 138 l 190 0 l 297 0 z "},"\"":{"ha":550,"x_min":0,"x_max":0,"o":"m 467 972 b 408 1040 469 1040 417 1040 b 344 978 378 1040 344 1022 b 346 954 344 971 344 965 l 390 618 l 417 618 z m 206 972 b 147 1040 210 1040 156 1040 b 83 978 118 1040 83 1022 b 85 954 83 971 83 965 l 131 618 l 157 618 z "},"#":{"ha":926,"x_min":0,"x_max":0,"o":"m 597 360 l 839 360 l 839 435 l 606 435 l 624 569 l 867 569 l 867 649 l 633 649 l 679 983 l 597 983 l 553 649 l 413 649 l 461 983 l 374 983 l 329 649 l 88 649 l 88 569 l 319 569 l 301 435 l 57 435 l 57 360 l 290 360 l 240 0 l 321 0 l 374 360 l 514 360 l 461 0 l 546 0 z m 383 435 l 403 569 l 542 569 l 524 435 z "},"$":{"ha":1128,"x_min":0,"x_max":0,"o":"m 531 1006 b 272 946 463 1000 363 993 b 119 721 158 888 119 794 b 194 565 119 660 146 604 b 531 478 260 514 339 503 l 531 63 b 147 285 358 71 211 115 l 44 246 b 228 44 79 179 118 103 b 531 -24 332 -10 442 -17 l 531 -117 l 614 -117 l 614 -24 b 961 86 703 -18 850 -10 b 1060 292 1022 140 1060 211 b 958 475 1060 394 990 454 b 614 563 876 531 738 547 l 614 919 b 803 876 658 915 726 910 b 943 765 883 840 918 797 l 1032 813 b 854 950 994 854 951 906 b 614 1006 760 993 682 1000 l 614 1093 l 531 1093 z m 531 575 b 219 729 365 592 219 608 b 332 876 219 789 265 843 b 531 919 406 913 490 917 z m 614 467 b 958 286 817 439 958 417 b 836 115 958 207 908 151 b 614 63 754 72 678 67 z "},"%":{"ha":1504,"x_min":0,"x_max":0,"o":"m 1157 610 b 878 303 1000 603 878 481 b 1165 -8 878 119 1006 -8 b 1458 299 1340 -8 1458 132 b 1157 610 1458 478 1331 617 z m 435 0 l 508 0 l 1063 956 l 989 956 z m 1158 547 b 1386 296 1293 553 1386 454 b 1165 53 1386 132 1275 53 b 946 301 1074 53 946 117 b 1158 547 946 440 1021 543 z m 321 961 b 42 654 165 954 42 832 b 329 343 42 469 171 343 b 622 651 504 343 622 483 b 321 961 622 831 496 968 z m 324 900 b 551 649 457 904 551 807 b 331 404 551 485 439 404 b 111 653 238 404 111 469 b 324 900 111 792 186 896 z "},"&":{"ha":1071,"x_min":0,"x_max":0,"o":"m 1049 83 b 838 183 974 93 938 107 b 969 521 894 260 936 325 l 879 521 b 774 235 863 401 839 331 b 501 511 703 297 643 351 b 729 754 593 547 729 603 b 503 964 729 858 654 964 b 254 756 311 964 254 839 b 358 546 254 669 310 603 b 53 258 228 499 53 436 b 415 -22 53 122 179 -22 b 661 35 515 -22 603 6 b 774 121 715 63 742 89 b 1049 1 889 33 944 4 z m 447 576 b 349 758 392 643 349 699 b 499 888 349 822 396 888 b 643 761 592 888 643 825 b 447 576 643 650 529 608 z m 415 478 b 714 171 532 340 604 269 b 601 99 679 142 654 121 b 417 60 540 72 476 60 b 151 264 254 60 151 153 b 415 478 151 389 271 429 z "},"’":{"ha":376,"x_min":0,"x_max":0,"o":"m 246 981 l 128 981 l 128 836 l 193 836 b 136 726 194 786 197 733 l 136 676 b 246 806 242 681 244 763 z "},"(":{"ha":492,"x_min":0,"x_max":0,"o":"m 468 -262 b 290 -17 372 -175 314 -67 b 210 356 235 100 210 229 b 388 896 210 590 296 782 b 468 983 413 926 440 956 l 433 1019 b 107 367 347 951 107 763 b 433 -303 107 67 253 -164 z "},")":{"ha":492,"x_min":0,"x_max":0,"o":"m 25 979 b 283 361 97 913 283 708 b 106 -179 283 126 196 -65 b 25 -267 81 -210 53 -237 l 60 -301 b 386 350 146 -235 386 -46 b 60 1019 386 649 242 879 z "},"*":{"ha":550,"x_min":0,"x_max":0,"o":"m 251 808 l 103 878 l 69 819 l 231 753 l 125 615 l 178 575 l 274 718 l 382 581 l 433 617 l 322 750 l 482 818 l 457 878 l 310 808 l 313 981 l 247 981 z "},"+":{"ha":926,"x_min":0,"x_max":0,"o":"m 506 363 l 868 363 l 868 446 l 506 446 l 506 807 l 422 807 l 422 446 l 58 446 l 58 363 l 422 363 l 422 0 l 506 0 z "},",":{"ha":376,"x_min":0,"x_max":0,"o":"m 136 0 l 188 0 b 139 -111 189 -37 190 -104 l 139 -160 b 239 -28 233 -150 238 -69 l 239 138 l 136 138 z "},"-":{"ha":521,"x_min":0,"x_max":0,"o":"m 71 524 l 71 438 l 454 438 l 454 524 z "},".":{"ha":376,"x_min":0,"x_max":0,"o":"m 133 0 l 240 0 l 240 138 l 133 138 z "},"/":{"ha":694,"x_min":0,"x_max":0,"o":"m 24 0 l 107 0 l 660 981 l 578 981 z "},":":{"ha":435,"x_min":0,"x_max":0,"o":"m 192 679 l 192 543 l 301 543 l 301 679 z m 192 138 l 192 0 l 301 0 l 301 138 z "},";":{"ha":435,"x_min":0,"x_max":0,"o":"m 192 679 l 192 543 l 301 543 l 301 679 z m 193 0 l 244 0 b 196 -111 246 -37 247 -104 l 196 -160 b 296 -28 290 -150 294 -69 l 296 138 l 193 138 z "},"<":{"ha":926,"x_min":0,"x_max":0,"o":"m 926 85 l 93 492 l 926 896 l 926 985 l 0 540 l 0 443 l 926 -4 z "},"=":{"ha":926,"x_min":0,"x_max":0,"o":"m 926 321 l 0 321 l 0 240 l 926 240 z m 926 567 l 0 567 l 0 485 l 926 485 z "},">":{"ha":926,"x_min":0,"x_max":0,"o":"m 926 443 l 926 540 l 0 985 l 0 896 l 833 492 l 0 85 l 0 -4 z "},"?":{"ha":983,"x_min":0,"x_max":0,"o":"m 192 671 b 321 863 218 747 242 808 b 524 921 390 908 461 921 b 821 689 651 921 821 865 b 672 493 821 550 714 510 b 576 463 640 482 608 472 b 435 274 446 425 439 394 l 521 274 b 658 400 524 361 525 361 b 824 481 718 418 778 440 b 913 694 875 526 913 600 b 524 1003 913 882 756 1003 b 286 944 442 1003 358 988 b 111 701 172 875 135 771 z m 424 138 l 424 0 l 528 0 l 528 138 z "},"@":{"ha":1244,"x_min":0,"x_max":0,"o":"m 1097 90 b 974 -8 1068 63 1036 31 b 626 -111 890 -60 775 -111 b 160 325 399 -111 160 17 b 731 928 160 639 408 928 b 1085 588 921 928 1085 822 b 860 167 1085 364 947 167 b 810 239 832 167 810 188 b 850 479 810 283 818 325 l 896 683 l 814 683 l 790 583 b 625 715 760 665 708 715 b 335 321 472 715 335 528 b 513 100 335 168 421 100 b 721 228 628 100 697 194 b 732 156 721 208 719 182 b 832 99 740 139 767 99 b 1149 590 992 99 1149 338 b 736 989 1149 835 986 989 b 96 324 360 989 96 664 b 628 -172 96 -26 375 -172 b 1135 47 824 -172 994 -92 z m 761 482 b 685 250 761 476 758 342 b 550 175 646 203 596 175 b 429 326 468 175 429 244 b 636 642 429 465 508 642 b 761 482 699 642 764 592 z "},"A":{"ha":1100,"x_min":0,"x_max":0,"o":"m 492 981 l 10 0 l 107 0 l 232 254 l 864 254 l 990 0 l 1092 0 l 597 981 z m 825 332 l 269 332 l 544 893 z "},"B":{"ha":1274,"x_min":0,"x_max":0,"o":"m 114 0 l 878 0 b 1101 60 928 0 1032 4 b 1192 268 1164 110 1192 189 b 1050 500 1192 375 1136 464 b 971 518 1018 513 996 515 b 1097 594 1000 526 1057 542 b 1142 735 1126 633 1142 686 b 1056 919 1142 810 1108 876 b 822 981 983 981 899 981 l 114 981 z m 210 901 l 824 901 b 969 872 857 901 926 900 b 1042 728 1010 846 1042 794 b 992 607 1042 704 1039 651 b 808 554 938 557 863 554 l 210 554 z m 210 471 l 801 471 b 1039 408 853 471 982 469 b 1094 267 1061 389 1094 343 b 1047 139 1094 208 1071 164 b 875 82 997 86 924 82 l 210 82 z "},"C":{"ha":1128,"x_min":0,"x_max":0,"o":"m 1036 304 b 614 61 996 238 888 61 b 161 488 329 61 161 260 b 614 924 161 742 350 924 b 958 776 743 924 875 879 b 1014 696 986 743 997 724 l 1096 742 b 897 940 1060 800 1010 878 b 608 1011 815 985 715 1011 b 57 494 299 1011 57 792 b 608 -25 57 260 217 -25 b 1056 169 767 -25 932 22 b 1121 264 1086 206 1103 233 z "},"D":{"ha":1186,"x_min":0,"x_max":0,"o":"m 115 0 l 560 0 b 921 79 672 0 806 4 b 1119 488 1038 156 1119 299 b 867 933 1119 658 1049 844 b 606 981 776 978 694 981 l 115 981 z m 213 899 l 607 899 b 933 763 679 899 831 897 b 1019 482 992 688 1019 586 b 904 178 1019 371 992 257 b 525 82 799 83 656 82 l 213 82 z "},"E":{"ha":1157,"x_min":0,"x_max":0,"o":"m 115 0 l 1094 0 l 1094 82 l 211 82 l 211 474 l 990 474 l 990 556 l 211 556 l 211 899 l 1054 899 l 1054 981 l 115 981 z "},"F":{"ha":1042,"x_min":0,"x_max":0,"o":"m 115 0 l 211 0 l 211 468 l 933 468 l 933 551 l 211 551 l 211 900 l 1018 900 l 1018 982 l 115 982 z "},"G":{"ha":1244,"x_min":0,"x_max":0,"o":"m 1057 0 l 1142 0 l 1142 513 l 535 513 l 535 429 l 1057 429 b 940 176 1053 371 1044 271 b 622 60 854 97 739 60 b 161 490 340 60 161 240 b 611 922 161 732 340 922 b 943 808 732 922 853 889 b 1026 699 988 768 1008 732 l 1118 751 b 985 901 1092 793 1056 849 b 618 1010 888 974 750 1010 b 61 486 278 1010 61 781 b 614 -28 61 188 286 -28 b 965 89 788 -28 910 43 b 1057 201 1019 133 1044 178 z "},"H":{"ha":1244,"x_min":0,"x_max":0,"o":"m 117 981 l 117 0 l 211 0 l 211 479 l 1036 479 l 1036 0 l 1131 0 l 1131 981 l 1036 981 l 1036 561 l 211 561 l 211 981 z "},"I":{"ha":318,"x_min":0,"x_max":0,"o":"m 114 0 l 207 0 l 207 981 l 114 981 z "},"J":{"ha":868,"x_min":0,"x_max":0,"o":"m 683 981 l 683 479 b 671 263 683 393 682 324 b 592 114 661 215 647 157 b 410 63 546 81 488 63 b 139 193 347 63 210 75 b 106 276 119 225 113 251 l 10 240 b 118 69 21 210 51 129 b 403 -25 196 1 299 -25 b 731 140 529 -25 668 22 b 775 390 769 214 775 318 l 775 981 z "},"K":{"ha":1100,"x_min":0,"x_max":0,"o":"m 208 385 l 208 981 l 115 981 l 115 0 l 208 0 l 208 279 l 533 543 l 971 0 l 1094 0 l 607 603 l 1071 981 l 940 981 z "},"L":{"ha":956,"x_min":0,"x_max":0,"o":"m 117 981 l 117 0 l 926 0 l 926 82 l 213 82 l 213 981 z "},"M":{"ha":1303,"x_min":0,"x_max":0,"o":"m 115 981 l 115 0 l 203 0 l 203 872 b 232 800 214 838 217 832 l 606 0 l 703 0 l 1074 806 b 1103 872 1089 838 1092 844 l 1103 0 l 1190 0 l 1190 981 l 1068 981 l 656 82 b 613 186 640 122 635 138 l 239 981 z "},"N":{"ha":1244,"x_min":0,"x_max":0,"o":"m 1043 981 l 1043 121 l 203 981 l 115 981 l 115 0 l 203 0 l 203 856 l 1043 0 l 1131 0 l 1131 981 z "},"O":{"ha":1274,"x_min":0,"x_max":0,"o":"m 640 1011 b 58 492 283 1011 58 781 b 631 -26 58 194 288 -26 b 1217 493 990 -26 1217 210 b 640 1011 1217 744 1029 1008 z m 610 926 b 938 843 772 933 892 874 b 1110 499 1058 763 1110 622 b 639 57 1110 214 899 57 b 161 488 369 57 161 218 b 610 926 161 692 296 913 z "},"P":{"ha":1128,"x_min":0,"x_max":0,"o":"m 115 0 l 211 0 l 211 439 l 743 439 b 976 485 810 439 900 440 b 1103 713 1054 529 1103 611 b 1032 897 1103 781 1079 849 b 760 981 954 978 850 981 l 115 981 z m 211 899 l 769 899 b 988 792 882 899 954 872 b 1001 711 997 765 1001 736 b 915 554 1001 665 989 597 b 710 519 856 519 778 519 l 211 519 z "},"Q":{"ha":1274,"x_min":0,"x_max":0,"o":"m 1193 -68 l 1235 7 l 1042 113 b 1214 488 1090 157 1214 271 b 632 1007 1214 753 1015 1007 b 56 492 290 1007 56 785 b 642 -28 56 232 239 -28 b 964 58 806 -28 894 21 z m 621 922 b 932 840 718 924 842 900 b 1108 493 1043 765 1108 639 b 636 56 1108 256 942 56 b 160 492 389 56 160 197 b 621 922 160 706 317 917 z "},"R":{"ha":1215,"x_min":0,"x_max":0,"o":"m 115 981 l 115 0 l 210 0 l 210 438 l 658 438 l 1046 0 l 1178 0 l 783 438 b 1038 504 858 440 963 446 b 1132 713 1110 561 1132 642 b 1008 943 1132 813 1083 900 b 793 981 940 981 860 981 z m 210 900 l 796 900 b 963 861 850 900 913 900 b 1029 717 1000 833 1029 781 b 982 585 1029 672 1015 621 b 736 521 925 524 836 521 l 210 521 z "},"S":{"ha":1128,"x_min":0,"x_max":0,"o":"m 44 246 b 239 40 82 174 115 104 b 583 -25 317 0 408 -25 b 1018 150 856 -25 971 78 b 1061 292 1043 189 1061 239 b 917 500 1061 392 1001 463 b 697 551 863 524 785 538 b 361 600 643 560 408 590 b 221 726 300 613 221 643 b 565 922 221 842 357 922 b 944 765 826 922 914 806 l 1033 814 b 572 1007 918 953 760 1007 b 121 722 264 1007 121 869 b 243 538 121 638 167 574 b 443 490 296 513 360 503 b 625 467 503 482 564 474 b 960 286 836 439 960 413 b 575 61 960 151 804 61 b 413 76 521 61 465 65 b 147 285 233 114 181 206 z "},"T":{"ha":956,"x_min":0,"x_max":0,"o":"m -1 899 l 439 899 l 439 0 l 532 0 l 532 899 l 953 899 l 953 981 l -1 981 z "},"U":{"ha":1215,"x_min":0,"x_max":0,"o":"m 110 389 b 607 -25 110 106 272 -25 b 1103 400 939 -25 1103 103 l 1103 982 l 1014 982 l 1014 414 b 607 64 1014 171 907 64 b 200 397 350 64 194 147 l 200 982 l 110 982 z "},"V":{"ha":983,"x_min":0,"x_max":0,"o":"m 511 103 l 106 981 l 0 981 l 463 0 l 554 0 l 1008 981 l 904 981 z "},"W":{"ha":1475,"x_min":0,"x_max":0,"o":"m 4 982 l 329 0 l 440 0 l 710 783 b 743 885 725 832 728 838 b 772 788 753 842 756 832 l 1046 0 l 1160 0 l 1471 982 l 1378 982 l 1151 265 b 1101 97 1126 188 1121 168 b 1061 224 1085 154 1076 179 l 793 982 l 692 982 l 478 367 b 389 97 440 261 431 233 b 354 210 375 146 363 183 l 104 982 z "},"X":{"ha":1013,"x_min":0,"x_max":0,"o":"m 500 569 l 115 981 l -6 981 l 440 503 l 6 0 l 122 0 l 500 438 l 906 0 l 1028 0 l 558 503 l 974 981 l 857 981 z "},"Y":{"ha":1013,"x_min":0,"x_max":0,"o":"m 515 476 l 125 981 l 8 981 l 471 397 l 471 0 l 560 0 l 560 397 l 1004 981 l 894 981 z "},"Z":{"ha":1042,"x_min":0,"x_max":0,"o":"m 76 981 l 76 899 l 915 899 l 0 79 l 0 0 l 1017 0 l 1017 82 l 135 82 l 1042 894 l 1042 981 z "},"[":{"ha":406,"x_min":0,"x_max":0,"o":"m 114 -300 l 374 -300 l 374 -212 l 204 -212 l 204 929 l 374 929 l 374 1015 l 114 1015 z "},"\\":{"ha":694,"x_min":0,"x_max":0,"o":"m 660 0 l 107 981 l 24 981 l 578 0 z "},"]":{"ha":406,"x_min":0,"x_max":0,"o":"m 32 929 l 201 929 l 201 -212 l 32 -212 l 32 -300 l 292 -300 l 292 1015 l 32 1015 z "},"^":{"ha":1013,"x_min":0,"x_max":0,"o":"m 554 981 l 467 981 l 217 486 l 322 486 l 508 865 l 690 486 l 796 486 z "},"_":{"ha":694,"x_min":0,"x_max":0,"o":"m 708 -104 l -14 -104 l -14 -174 l 708 -174 z "},"‘":{"ha":376,"x_min":0,"x_max":0,"o":"m 132 682 l 249 682 l 249 828 l 183 828 b 242 938 182 878 181 931 l 242 989 b 132 858 136 983 133 903 z "},"a":{"ha":926,"x_min":0,"x_max":0,"o":"m 926 71 b 813 172 828 65 813 97 l 813 465 b 721 653 813 504 808 603 b 440 706 646 696 528 706 b 101 575 310 706 175 688 b 65 486 81 543 71 511 l 161 482 b 444 622 189 564 226 622 b 728 450 726 622 728 532 b 140 374 460 447 239 444 b 57 206 94 340 57 281 b 164 22 57 124 101 58 b 364 -17 185 11 238 -17 b 729 101 571 -17 675 61 b 843 -4 740 28 765 -4 b 926 1 872 -4 899 -1 z m 729 372 b 685 174 731 288 728 224 b 375 65 635 117 514 65 b 156 204 313 65 156 78 b 214 308 156 240 172 279 b 729 372 296 369 521 372 z "},"b":{"ha":983,"x_min":0,"x_max":0,"o":"m 100 0 l 192 0 l 192 107 b 504 -15 242 42 364 -15 b 917 343 724 -15 917 111 b 513 704 917 547 768 704 b 192 575 390 704 265 671 l 192 981 l 100 981 z m 478 618 b 815 343 678 625 815 510 b 501 65 815 153 663 65 b 190 340 322 65 190 143 b 253 532 190 410 204 482 b 478 618 300 582 385 614 z "},"c":{"ha":926,"x_min":0,"x_max":0,"o":"m 808 269 b 719 146 793 238 769 188 b 478 67 663 99 571 67 b 158 349 294 67 158 176 b 482 635 158 489 258 635 b 794 457 679 635 758 517 l 886 496 b 747 642 864 532 828 590 b 483 714 665 693 567 714 b 56 347 283 714 56 601 b 468 -15 56 111 244 -15 b 899 233 753 -15 850 151 z "},"d":{"ha":983,"x_min":0,"x_max":0,"o":"m 790 576 b 482 707 742 654 618 707 b 61 346 275 707 61 586 b 478 -18 61 103 267 -18 b 685 24 549 -18 619 -7 b 790 106 739 49 761 74 l 790 0 l 882 0 l 882 981 l 790 981 z m 492 60 b 164 344 275 60 164 190 b 469 629 167 550 338 624 b 700 563 539 635 639 608 b 790 350 722 546 790 494 b 743 167 790 285 781 218 b 492 60 700 108 613 60 z "},"e":{"ha":926,"x_min":0,"x_max":0,"o":"m 797 240 b 746 169 785 218 774 199 b 554 68 719 142 663 88 b 486 63 533 64 510 63 b 161 335 326 63 172 153 l 871 335 b 763 590 865 397 856 497 b 456 708 663 690 531 708 b 158 597 331 708 221 660 b 65 360 108 546 65 464 b 478 -17 65 142 242 -17 b 725 47 553 -17 647 1 b 871 189 801 93 844 153 z m 164 411 b 226 539 168 433 178 485 b 451 632 297 618 383 632 b 644 578 546 632 604 604 b 760 411 728 524 749 457 z "},"f":{"ha":492,"x_min":0,"x_max":0,"o":"m 150 688 l 14 688 l 14 615 l 150 615 l 150 0 l 242 0 l 242 615 l 474 615 l 474 688 l 242 688 l 242 800 b 356 925 242 861 251 925 b 474 911 413 925 436 919 l 474 990 b 342 1006 442 997 406 1006 b 164 914 306 1006 204 1006 b 150 821 151 883 150 851 z "},"g":{"ha":956,"x_min":0,"x_max":0,"o":"m 104 -50 b 286 -256 119 -196 219 -237 b 469 -278 347 -272 422 -278 b 731 -222 513 -278 644 -272 b 857 71 856 -150 857 -29 l 857 686 l 769 686 l 769 586 b 467 708 675 696 529 708 b 56 347 232 708 56 568 b 449 -19 56 104 236 -19 b 671 28 524 -19 601 -6 b 769 108 724 53 746 79 b 710 -136 771 -1 771 -83 b 463 -196 639 -196 476 -196 b 281 -164 401 -196 326 -185 b 200 -50 211 -131 204 -85 z m 458 631 b 724 528 575 635 679 589 b 771 347 765 471 771 393 b 711 156 771 278 756 208 b 464 63 667 106 578 63 b 154 347 276 63 154 181 b 458 631 154 521 288 625 z "},"h":{"ha":983,"x_min":0,"x_max":0,"o":"m 97 982 l 97 0 l 188 0 l 188 379 b 236 521 190 407 182 458 b 496 621 293 592 399 621 b 790 361 807 621 785 433 l 790 0 l 881 0 l 881 375 b 813 604 881 417 879 531 b 514 704 746 678 622 704 b 188 575 388 704 246 668 l 188 982 z "},"i":{"ha":289,"x_min":0,"x_max":0,"o":"m 99 808 l 190 808 l 190 940 l 99 940 z m 99 0 l 189 0 l 189 688 l 99 688 z "},"j":{"ha":289,"x_min":0,"x_max":0,"o":"m 100 940 l 100 806 l 189 806 l 189 940 z m 100 686 l 100 -76 b -11 -182 96 -93 114 -182 b -122 -164 -61 -182 -122 -165 l -122 -246 b 7 -264 -122 -250 -36 -264 b 189 -75 186 -265 188 -140 l 189 686 z "},"k":{"ha":926,"x_min":0,"x_max":0,"o":"m 100 0 l 192 0 l 192 188 l 421 364 l 797 0 l 932 0 l 496 421 l 843 686 l 704 686 l 192 296 l 192 981 l 100 981 z "},"l":{"ha":289,"x_min":0,"x_max":0,"o":"m 99 0 l 192 0 l 192 981 l 99 981 z "},"m":{"ha":1621,"x_min":0,"x_max":0,"o":"m 190 400 b 282 568 192 453 193 515 b 483 617 308 585 374 617 b 633 592 535 617 586 611 b 763 378 756 543 760 446 l 763 0 l 854 0 l 854 408 b 906 540 854 443 856 492 b 1140 615 969 601 1076 615 b 1335 567 1208 615 1278 604 b 1426 382 1422 513 1425 439 l 1426 0 l 1518 0 l 1518 406 b 1463 578 1515 461 1513 514 b 1147 701 1388 669 1267 701 b 811 564 1024 701 888 665 b 649 679 789 593 753 646 b 490 704 597 697 543 704 b 190 597 308 704 231 633 l 190 686 l 99 686 l 99 0 l 190 0 z "},"n":{"ha":983,"x_min":0,"x_max":0,"o":"m 886 379 b 754 651 885 464 882 581 b 513 706 696 685 606 706 b 192 590 307 706 228 626 l 192 686 l 99 686 l 99 0 l 192 0 l 192 385 b 240 529 192 449 197 485 b 501 618 304 596 407 618 b 794 374 788 618 794 468 l 794 0 l 886 0 z "},"o":{"ha":983,"x_min":0,"x_max":0,"o":"m 508 708 b 60 342 233 713 60 557 b 489 -19 60 151 208 -19 b 922 338 744 -19 922 132 b 508 708 922 513 799 704 z m 485 633 b 819 343 658 636 819 536 b 488 58 819 168 685 58 b 164 342 308 58 164 154 b 485 633 164 525 307 629 z "},"p":{"ha":983,"x_min":0,"x_max":0,"o":"m 192 686 l 103 686 l 103 -261 l 192 -261 l 192 106 b 504 -17 253 36 346 -17 b 917 344 718 -17 917 113 b 524 706 917 526 788 706 b 192 578 399 706 272 672 z m 501 624 b 814 346 713 624 814 492 b 499 68 814 160 665 68 b 249 164 392 68 296 107 b 193 340 197 222 193 297 b 274 549 193 393 199 482 b 501 624 322 592 400 624 z "},"q":{"ha":983,"x_min":0,"x_max":0,"o":"m 790 686 l 790 592 b 467 710 754 626 668 710 b 63 346 244 710 63 582 b 482 -19 63 108 260 -19 b 790 93 663 -19 742 50 l 790 -251 l 881 -251 l 881 686 z m 468 628 b 744 518 586 629 692 592 b 792 344 781 468 792 397 b 742 169 792 282 781 218 b 488 64 697 111 603 64 b 165 354 342 64 165 144 b 468 628 165 456 224 624 z "},"r":{"ha":550,"x_min":0,"x_max":0,"o":"m 189 686 l 99 686 l 99 0 l 189 0 l 189 372 b 217 494 189 413 194 450 b 297 576 235 529 265 558 b 461 617 354 608 415 617 b 532 611 486 617 504 614 l 532 707 b 236 628 454 708 335 710 b 189 575 211 606 199 589 z "},"s":{"ha":868,"x_min":0,"x_max":0,"o":"m 42 168 b 456 -17 92 11 293 -17 b 733 50 563 -17 663 0 b 792 113 757 67 778 88 b 817 206 807 139 817 171 b 696 369 817 269 783 338 b 546 396 668 379 628 389 b 340 407 478 401 408 403 b 188 444 250 413 214 417 b 167 500 175 458 167 478 b 218 583 167 508 167 551 b 418 625 275 621 374 625 b 654 576 478 625 592 617 b 700 524 683 558 693 538 l 801 544 b 697 656 788 572 763 619 b 422 706 622 694 511 706 b 225 681 371 706 292 701 b 93 582 197 672 131 649 b 71 490 76 550 71 517 b 181 335 71 401 131 356 b 388 310 232 315 297 313 b 544 300 440 307 492 304 b 697 263 628 294 669 288 b 724 203 719 242 724 217 b 699 139 724 179 713 156 b 449 65 656 89 554 65 b 228 106 379 65 285 76 b 140 192 169 133 153 168 z "},"t":{"ha":435,"x_min":0,"x_max":0,"o":"m 143 919 l 143 686 l 13 686 l 13 614 l 143 614 l 143 271 b 176 54 143 174 144 104 b 338 -15 208 4 265 -15 b 429 -6 371 -15 397 -11 l 429 68 b 368 64 408 65 389 64 b 235 288 235 64 235 154 l 235 614 l 429 614 l 429 686 l 235 686 l 235 964 z "},"u":{"ha":983,"x_min":0,"x_max":0,"o":"m 794 278 b 728 139 792 226 793 188 b 457 67 654 83 533 67 b 233 140 331 67 263 106 b 189 311 189 193 189 263 l 189 688 l 97 688 l 97 318 b 272 10 101 278 74 75 b 456 -18 351 -17 426 -18 b 794 100 661 -18 754 64 l 794 0 l 885 0 l 885 688 l 794 688 z "},"v":{"ha":781,"x_min":0,"x_max":0,"o":"m 393 101 l 107 686 l 3 686 l 350 0 l 435 0 l 782 686 l 678 686 z "},"w":{"ha":1186,"x_min":0,"x_max":0,"o":"m 546 686 l 326 113 l 99 686 l 0 686 l 283 0 l 371 0 l 593 581 l 819 0 l 907 0 l 1185 686 l 1090 686 l 864 113 l 642 686 z "},"x":{"ha":781,"x_min":0,"x_max":0,"o":"m 389 419 l 139 686 l 15 686 l 333 357 l -6 0 l 115 0 l 389 293 l 665 0 l 786 0 l 446 357 l 760 686 l 642 686 z "},"y":{"ha":781,"x_min":0,"x_max":0,"o":"m 417 64 l 111 688 l 0 688 l 368 -37 b 153 -192 338 -117 306 -192 b 15 -167 89 -192 58 -182 l 15 -253 b 157 -269 63 -262 99 -269 b 454 -51 361 -269 393 -196 l 778 688 l 679 688 z "},"z":{"ha":781,"x_min":0,"x_max":0,"o":"m 758 76 l 143 76 l 758 621 l 758 686 l 60 686 l 60 610 l 626 610 l 15 74 l 15 0 l 758 0 z "},"{":{"ha":492,"x_min":0,"x_max":0,"o":"m 111 344 b 201 233 131 339 185 322 b 207 104 207 206 207 190 l 207 -46 b 253 -239 207 -119 208 -186 b 438 -303 296 -290 344 -296 l 438 -269 b 317 -165 392 -254 340 -239 b 306 -39 306 -131 306 -94 l 306 76 b 193 358 304 253 304 319 b 304 676 303 394 303 461 l 304 793 b 365 957 306 854 306 914 b 438 986 388 974 414 981 l 438 1019 b 258 960 342 1011 303 1008 b 206 731 207 901 207 829 l 206 581 b 111 376 206 472 203 403 z "},"|":{"ha":318,"x_min":0,"x_max":0,"o":"m 201 1042 l 118 1042 l 118 -347 l 201 -347 z "},"}":{"ha":492,"x_min":0,"x_max":0,"o":"m 381 376 b 286 581 289 403 286 472 l 286 731 b 233 960 285 829 285 901 b 54 1019 189 1008 150 1011 l 54 986 b 126 957 78 981 104 974 b 188 793 186 914 186 854 l 188 676 b 299 358 189 461 189 394 b 186 76 188 319 188 253 l 186 -39 b 175 -167 186 -94 186 -131 b 54 -269 151 -239 100 -254 l 54 -303 b 239 -239 147 -296 196 -290 b 285 -46 283 -186 285 -119 l 285 104 b 290 233 285 190 285 206 b 381 344 307 322 361 339 z "},"~":{"ha":1013,"x_min":0,"x_max":0,"o":"m 783 494 b 649 407 754 458 713 407 b 514 456 618 407 597 417 b 357 504 461 481 411 504 b 186 393 260 504 208 428 l 232 318 b 358 408 285 383 304 408 b 474 374 400 408 444 388 b 649 311 579 324 604 311 b 826 418 725 311 781 360 z "},"¡":{"ha":435,"x_min":0,"x_max":0,"o":"m 160 704 l 142 422 l 142 0 l 240 0 l 240 393 l 224 704 z m 138 844 l 244 844 l 244 981 l 138 981 z "},"¢":{"ha":926,"x_min":0,"x_max":0,"o":"m 439 847 l 439 704 b 207 633 390 701 297 694 b 60 344 124 575 60 481 b 415 -15 60 136 213 4 b 439 -17 422 -17 431 -17 l 439 -161 l 515 -161 l 515 -17 b 901 231 699 -4 810 68 l 815 264 b 694 117 792 215 763 160 b 515 63 628 75 565 68 l 515 629 b 803 450 703 617 771 503 l 889 485 b 617 690 864 528 790 649 b 515 703 574 701 540 703 l 515 847 z m 439 61 b 289 108 399 65 350 71 b 215 172 261 126 236 147 b 160 346 178 221 160 283 b 439 629 160 456 231 613 z "},"£":{"ha":1100,"x_min":0,"x_max":0,"o":"m 67 543 l 67 465 l 356 465 b 486 261 389 438 486 357 b 483 225 486 249 485 238 b 249 293 415 258 342 293 b 51 150 139 293 51 239 b 265 -11 51 56 139 -11 b 442 38 307 -11 374 -4 b 522 113 485 64 503 88 b 807 -12 593 60 692 -12 b 1018 136 951 -12 1001 86 b 1035 300 1038 193 1036 247 l 949 300 b 951 244 950 282 951 263 b 815 75 951 151 911 75 b 564 178 738 75 638 133 b 578 257 572 208 578 229 b 483 465 578 361 508 439 l 736 465 l 736 543 l 415 543 b 292 733 372 578 292 642 b 581 918 292 857 419 918 b 894 678 699 918 879 879 l 986 678 b 828 940 976 749 958 864 b 576 999 763 976 679 999 b 196 740 319 999 196 868 b 285 543 196 635 263 567 z m 456 150 b 392 100 439 132 425 117 b 264 68 350 78 306 68 b 143 143 188 68 143 99 b 260 218 143 193 197 218 b 456 150 343 218 404 182 z "},"⁄":{"ha":174,"x_min":0,"x_max":0,"o":"m -229 0 l -162 0 l 406 981 l 339 981 z "},"¥":{"ha":1013,"x_min":0,"x_max":0,"o":"m 1004 964 l 894 964 l 514 468 l 125 964 l 8 964 l 374 511 l 117 511 l 117 436 l 435 436 l 471 390 l 471 342 l 117 342 l 117 267 l 471 267 l 471 0 l 560 0 l 560 267 l 899 267 l 899 342 l 560 342 l 560 390 l 594 436 l 899 436 l 899 511 l 654 511 z "},"ƒ":{"ha":492,"x_min":0,"x_max":0,"o":"m 182 664 l 46 664 l 38 592 l 174 592 l 94 -111 b -33 -236 85 -174 72 -236 b -149 -222 -90 -236 -115 -231 l -158 -301 b -31 -317 -114 -312 -78 -317 b 183 -132 138 -317 168 -224 l 264 592 l 496 592 l 504 664 l 272 664 l 286 776 b 414 901 294 839 308 901 b 529 888 471 901 493 896 l 539 967 b 411 982 493 978 458 982 b 197 797 221 982 204 860 z "},"§":{"ha":956,"x_min":0,"x_max":0,"o":"m 111 -190 b 488 -285 211 -233 333 -285 b 803 -32 733 -285 803 -126 b 760 96 803 35 778 71 b 832 151 783 110 806 124 b 903 343 876 200 903 271 b 658 615 903 529 754 586 b 407 683 575 642 489 658 b 278 796 340 703 278 721 b 344 900 278 842 307 879 b 457 922 374 914 415 922 b 729 850 560 922 660 881 l 781 922 b 461 1006 701 958 596 1006 b 182 785 249 1006 182 868 b 219 678 182 724 210 692 b 79 543 193 665 122 631 b 50 413 61 504 50 456 b 268 169 50 235 217 185 b 589 83 307 157 539 100 b 704 -42 649 64 704 32 b 499 -200 704 -122 638 -200 b 257 -154 440 -200 335 -182 b 169 -118 228 -143 199 -131 z m 282 629 b 371 596 310 615 325 610 b 561 546 433 578 497 561 b 807 338 683 515 807 482 b 785 243 807 306 800 274 b 694 144 760 189 725 165 b 593 181 658 160 644 165 b 264 269 540 194 283 261 b 144 419 151 308 144 394 b 175 528 144 457 156 493 b 282 629 207 582 244 606 z "},"¤":{"ha":926,"x_min":0,"x_max":0,"o":"m 847 790 l 783 854 l 682 753 b 464 828 646 779 581 828 b 244 751 347 828 279 778 l 144 853 l 82 790 l 182 689 b 107 471 156 654 107 588 b 183 253 107 354 156 289 l 79 151 l 142 89 l 244 190 b 464 115 279 164 344 115 b 681 190 581 115 644 164 l 782 86 l 846 150 l 743 253 b 819 472 769 288 819 353 b 744 689 819 590 771 653 z m 735 472 b 465 197 733 313 615 197 b 190 472 313 197 190 315 b 463 746 190 631 313 746 b 735 472 610 746 736 633 z "},"'":{"ha":289,"x_min":0,"x_max":0,"o":"m 206 972 b 147 1040 210 1040 156 1040 b 83 978 118 1040 83 1022 b 85 954 83 971 83 965 l 131 618 l 157 618 z "},"“":{"ha":579,"x_min":0,"x_max":0,"o":"m 253 831 l 192 831 b 244 936 192 885 190 933 l 244 992 b 161 956 219 992 188 990 b 135 851 136 924 135 882 l 135 686 l 253 686 z m 446 831 l 385 831 b 438 936 385 885 385 933 l 438 992 b 354 956 413 992 382 990 b 328 851 331 924 329 882 l 328 686 l 446 686 z "},"«":{"ha":724,"x_min":0,"x_max":0,"o":"m 367 472 l 367 396 l 649 153 l 649 232 l 457 433 l 649 633 l 649 713 z m 76 472 l 76 396 l 354 156 l 354 236 l 165 433 l 354 629 l 354 710 z "},"‹":{"ha":347,"x_min":0,"x_max":0,"o":"m 32 472 l 32 396 l 313 153 l 313 232 l 122 433 l 313 633 l 313 713 z "},"›":{"ha":347,"x_min":0,"x_max":0,"o":"m 32 631 l 221 433 l 32 238 l 32 157 l 311 397 l 311 471 l 32 711 z "},"ﬁ":{"ha":781,"x_min":0,"x_max":0,"o":"m 150 688 l 14 688 l 14 615 l 150 615 l 150 0 l 242 0 l 242 615 l 474 615 l 474 688 l 242 688 l 242 799 b 356 924 242 861 250 924 b 474 910 413 924 438 918 l 474 989 b 343 1004 428 1000 390 1004 b 164 913 306 1004 204 1004 b 150 819 150 882 150 851 z m 592 808 l 682 808 l 682 942 l 592 942 z m 592 0 l 682 0 l 682 688 l 592 688 z "},"ﬂ":{"ha":781,"x_min":0,"x_max":0,"o":"m 150 688 l 14 688 l 14 615 l 150 615 l 150 0 l 242 0 l 242 615 l 472 615 l 472 688 l 242 688 l 242 800 b 353 925 242 826 236 925 b 472 911 413 925 436 919 l 472 990 b 342 1006 426 1001 389 1006 b 164 914 306 1006 204 1006 b 150 821 151 885 150 851 z m 590 0 l 683 0 l 683 982 l 590 982 z "},"–":{"ha":1013,"x_min":0,"x_max":0,"o":"m 71 513 l 71 431 l 942 431 l 942 513 z "},"†":{"ha":753,"x_min":0,"x_max":0,"o":"m 335 981 l 335 689 l 50 689 l 50 617 l 335 617 l 335 0 l 418 0 l 418 617 l 703 617 l 703 689 l 418 689 l 418 981 z "},"‡":{"ha":753,"x_min":0,"x_max":0,"o":"m 335 719 l 46 719 l 46 644 l 335 644 l 335 378 l 50 378 l 50 304 l 335 304 l 335 -1 l 418 -1 l 418 304 l 706 304 l 706 378 l 418 378 l 418 646 l 706 646 l 706 719 l 418 719 l 418 981 l 335 981 z "},"·":{"ha":376,"x_min":0,"x_max":0,"o":"m 133 404 l 240 404 l 240 542 l 133 542 z "},"¶":{"ha":926,"x_min":0,"x_max":0,"o":"m 431 981 b 210 911 374 979 285 978 b 125 711 167 874 125 810 b 218 507 125 632 156 554 b 346 458 268 469 310 464 l 346 -232 l 410 -232 l 410 919 l 628 919 l 628 -232 l 692 -232 l 692 919 l 739 919 l 739 981 z "},"•":{"ha":463,"x_min":0,"x_max":0,"o":"m 397 490 b 233 656 397 582 328 656 b 65 490 132 656 65 574 b 235 325 65 400 136 325 b 397 490 332 325 397 400 z "},"‚":{"ha":376,"x_min":0,"x_max":0,"o":"m 246 144 l 128 144 l 128 0 l 193 0 b 136 -110 196 -50 197 -103 l 136 -160 b 246 -31 240 -156 244 -75 z "},"„":{"ha":579,"x_min":0,"x_max":0,"o":"m 326 0 l 386 0 b 333 -106 388 -54 388 -103 l 333 -161 b 417 -124 358 -160 390 -160 b 444 -19 442 -92 443 -51 l 444 144 l 326 144 z m 132 0 l 193 0 b 140 -106 193 -54 193 -103 l 140 -161 b 224 -124 165 -160 197 -160 b 250 -19 247 -92 249 -51 l 250 144 l 132 144 z "},"”":{"ha":579,"x_min":0,"x_max":0,"o":"m 326 836 l 386 836 b 333 731 388 782 388 733 l 333 676 b 417 713 358 676 390 676 b 444 817 442 744 443 785 l 444 981 l 326 981 z m 132 836 l 193 836 b 140 731 193 782 193 733 l 140 676 b 224 713 165 676 197 676 b 250 817 247 744 249 785 l 250 981 l 132 981 z "},"»":{"ha":724,"x_min":0,"x_max":0,"o":"m 75 635 l 265 433 l 75 233 l 75 156 l 356 396 l 356 474 l 75 714 z m 369 631 l 557 433 l 369 238 l 369 157 l 647 397 l 647 471 l 369 711 z "},"…":{"ha":1389,"x_min":0,"x_max":0,"o":"m 178 0 l 285 0 l 285 138 l 178 138 z m 642 0 l 749 0 l 749 138 l 642 138 z m 1106 0 l 1213 0 l 1213 138 l 1106 138 z "},"‰":{"ha":2171,"x_min":0,"x_max":0,"o":"m 1157 610 b 878 303 1001 603 878 481 b 1165 -8 878 119 1006 -8 b 1458 299 1340 -8 1458 132 b 1157 610 1458 478 1331 617 z m 1158 547 b 1386 296 1293 553 1386 454 b 1165 53 1386 132 1275 53 b 946 301 1074 53 946 117 b 1158 547 946 440 1021 543 z m 1822 610 b 1543 303 1667 603 1543 479 b 1831 -8 1543 119 1671 -8 b 2124 299 2007 -8 2124 132 b 1822 610 2124 478 1997 617 z m 1824 547 b 2051 296 1958 553 2051 454 b 1831 53 2051 132 1940 53 b 1611 301 1739 53 1611 117 b 1824 547 1611 440 1686 543 z m 435 0 l 508 0 l 1063 956 l 989 956 z m 321 961 b 42 654 165 954 42 832 b 329 343 42 469 171 343 b 622 651 504 343 622 483 b 321 961 622 831 496 968 z m 324 900 b 551 649 457 904 551 807 b 331 404 551 485 439 404 b 111 653 238 404 111 469 b 324 900 111 792 186 896 z "},"¿":{"ha":983,"x_min":0,"x_max":0,"o":"m 790 310 b 661 119 763 233 740 172 b 458 60 592 72 521 60 b 163 292 332 60 163 115 b 311 488 163 431 268 471 b 406 519 342 500 374 510 b 547 708 536 557 543 586 l 461 708 b 324 582 458 621 457 621 b 160 500 264 564 206 542 b 71 286 108 456 71 381 b 458 -22 71 99 226 -22 b 696 36 556 -22 635 -1 b 871 279 810 106 847 211 z m 558 844 l 558 981 l 453 981 l 453 844 z "},"`":{"ha":521,"x_min":0,"x_max":0,"o":"m 132 971 l 329 769 l 389 769 l 285 971 z "},"´":{"ha":521,"x_min":0,"x_max":0,"o":"m 131 771 l 190 771 l 390 972 l 239 972 z "},"ˆ":{"ha":521,"x_min":0,"x_max":0,"o":"m 222 946 l 72 763 l 147 763 l 263 881 l 375 763 l 447 763 l 304 946 z "},"˜":{"ha":521,"x_min":0,"x_max":0,"o":"m 11 829 b 114 886 31 853 58 886 b 142 883 122 886 132 885 b 283 843 190 875 236 857 b 375 828 314 835 344 828 b 549 942 478 828 528 910 l 506 958 b 413 901 492 938 465 901 b 344 914 390 901 365 908 b 150 957 224 947 190 957 b -28 854 60 957 8 897 z "},"¯":{"ha":521,"x_min":0,"x_max":0,"o":"m 493 790 l 493 863 l 28 863 l 28 790 z "},"˘":{"ha":521,"x_min":0,"x_max":0,"o":"m 386 946 b 361 883 383 925 381 906 b 260 838 347 865 317 838 b 138 946 189 838 149 876 l 67 946 b 258 774 72 915 92 774 b 417 846 328 774 383 801 b 454 946 443 881 449 915 z "},"˙":{"ha":521,"x_min":0,"x_max":0,"o":"m 215 944 l 215 814 l 304 814 l 304 944 z "},"¨":{"ha":521,"x_min":0,"x_max":0,"o":"m 28 924 l 28 790 l 125 790 l 125 924 z m 396 790 l 493 790 l 493 924 l 396 924 z "},"˚":{"ha":521,"x_min":0,"x_max":0,"o":"m 249 1000 b 101 879 176 996 101 957 b 260 761 101 799 186 761 b 418 882 340 761 418 806 b 249 1000 418 957 347 1006 z m 257 943 b 344 882 317 944 344 911 b 258 822 344 853 321 822 b 174 882 188 822 174 861 b 257 943 174 917 210 942 z "},"¸":{"ha":521,"x_min":0,"x_max":0,"o":"m 201 28 l 201 -135 b 308 -187 235 -135 308 -133 b 208 -236 308 -236 229 -236 b 124 -231 181 -236 151 -233 l 124 -276 b 232 -286 160 -281 196 -286 b 397 -179 390 -286 397 -199 b 350 -103 397 -150 383 -121 b 263 -83 319 -85 288 -85 l 263 28 z "},"˝":{"ha":521,"x_min":0,"x_max":0,"o":"m 36 771 l 96 771 l 296 972 l 144 972 z m 224 771 l 283 771 l 483 972 l 332 972 z "},"˛":{"ha":521,"x_min":0,"x_max":0,"o":"m 388 -178 b 318 -183 360 -181 340 -183 b 217 -107 231 -183 217 -132 b 328 1 217 -78 225 -42 l 326 4 l 258 4 b 132 -140 164 -36 132 -90 b 294 -256 132 -256 272 -256 b 388 -249 325 -256 356 -251 z "},"ˇ":{"ha":521,"x_min":0,"x_max":0,"o":"m 300 763 l 449 946 l 374 946 l 258 828 l 146 946 l 72 946 l 215 763 z "},"—":{"ha":1128,"x_min":0,"x_max":0,"o":"m 71 513 l 71 431 l 1058 431 l 1058 513 z "},"Æ":{"ha":1563,"x_min":0,"x_max":0,"o":"m 688 981 l -17 0 l 89 0 l 261 242 l 719 242 l 719 0 l 1507 0 l 1507 82 l 811 82 l 811 465 l 1432 465 l 1432 547 l 811 547 l 811 899 l 1488 899 l 1488 981 z m 719 319 l 317 319 l 726 900 b 721 865 724 889 722 878 b 719 829 719 854 719 842 z "},"ª":{"ha":607,"x_min":0,"x_max":0,"o":"m 104 832 b 297 929 122 882 140 929 b 482 821 478 929 481 868 b 118 786 293 818 185 814 b 25 647 26 750 25 664 b 82 526 25 585 57 546 b 242 486 126 492 185 486 b 486 565 381 486 453 540 b 571 496 489 538 494 496 b 626 501 592 496 606 499 l 626 558 b 550 619 560 554 550 574 l 550 825 b 290 994 550 926 506 994 b 99 950 244 994 156 990 b 29 836 51 917 40 878 z m 482 758 b 428 604 482 679 478 640 b 244 553 385 572 313 553 b 101 643 156 553 101 589 b 181 736 101 704 153 728 b 482 758 251 758 400 758 z "},"Ł":{"ha":956,"x_min":0,"x_max":0,"o":"m 213 981 l 117 981 l 117 399 l 1 333 l 1 250 l 117 315 l 117 0 l 926 0 l 926 82 l 213 82 l 213 369 l 719 653 l 719 736 l 213 453 z "},"Ø":{"ha":1274,"x_min":0,"x_max":0,"o":"m 50 56 l 97 -3 l 228 103 b 631 -33 361 -12 528 -33 b 1215 486 971 -33 1215 186 b 1094 811 1215 638 1151 751 l 1218 913 l 1168 971 l 1040 867 b 933 938 1007 894 983 914 b 640 1003 811 999 699 1003 b 57 483 260 1003 57 753 b 174 157 57 308 135 207 z m 246 215 b 158 486 219 253 158 338 b 631 919 158 693 311 919 b 878 868 682 919 778 914 b 971 810 924 847 943 832 z m 1024 756 b 1110 488 1057 707 1110 632 b 642 50 1110 213 900 50 b 401 97 578 50 490 60 b 297 161 349 119 324 140 z "},"Œ":{"ha":1592,"x_min":0,"x_max":0,"o":"m 828 0 l 1542 0 l 1542 82 l 924 82 l 924 468 l 1481 468 l 1481 550 l 924 550 l 924 899 l 1522 899 l 1522 981 l 828 981 l 828 944 b 572 1001 747 976 688 1001 b 53 493 239 1001 53 746 b 582 -22 53 242 232 -22 b 828 32 710 -22 783 11 z m 828 115 b 601 63 768 90 704 63 b 158 493 288 63 158 293 b 581 919 158 683 290 919 b 828 857 667 919 751 897 z "},"º":{"ha":665,"x_min":0,"x_max":0,"o":"m 331 996 b 33 739 157 993 33 892 b 328 483 33 610 129 485 b 632 739 476 485 632 568 b 331 996 632 876 526 999 z m 325 933 b 553 738 454 938 553 860 b 332 547 553 629 468 549 b 154 618 265 549 197 567 b 114 736 131 647 114 689 b 325 933 114 863 210 929 z "},"æ":{"ha":1592,"x_min":0,"x_max":0,"o":"m 182 485 b 261 592 190 514 204 561 b 458 629 318 624 406 629 b 651 600 508 629 592 624 b 750 415 740 564 749 510 l 446 415 b 108 342 339 415 186 415 b 56 210 78 313 56 265 b 94 88 56 168 68 124 b 272 -8 140 24 214 1 b 400 -19 315 -17 357 -19 b 732 72 524 -19 649 3 b 793 156 774 107 785 133 b 901 43 808 126 833 83 b 1156 -19 978 -3 1081 -19 b 1458 85 1222 -19 1363 -4 b 1532 189 1501 125 1518 161 l 1460 236 b 1369 121 1450 213 1432 164 b 1157 61 1307 78 1226 61 b 890 171 1096 61 963 74 b 840 340 839 239 840 314 l 1532 340 b 1490 519 1529 378 1526 449 b 1139 707 1424 651 1276 707 b 819 567 988 707 871 644 b 718 667 804 600 788 636 b 564 703 669 689 617 697 b 464 708 531 707 497 708 b 154 621 256 708 185 650 b 83 493 104 574 92 526 z m 846 415 b 901 533 854 450 863 492 b 1140 628 951 590 1039 628 b 1358 553 1238 628 1314 594 b 1428 415 1414 503 1422 446 z m 750 340 b 681 143 746 269 743 200 b 413 58 619 88 517 58 b 333 64 386 58 360 60 b 160 207 201 81 160 133 b 397 340 160 339 318 340 z "},"ı":{"ha":289,"x_min":0,"x_max":0,"o":"m 99 0 l 190 0 l 190 686 l 99 686 z "},"ł":{"ha":289,"x_min":0,"x_max":0,"o":"m 192 981 l 99 981 l 99 547 l 0 471 l 0 382 l 99 458 l 99 0 l 192 0 l 192 529 l 289 604 l 289 693 l 192 618 z "},"ø":{"ha":983,"x_min":0,"x_max":0,"o":"m 761 632 b 486 710 726 656 643 710 b 144 576 385 710 239 682 b 57 349 89 514 57 431 b 143 118 57 236 108 165 l 44 35 l 93 -21 l 199 68 b 488 -18 249 38 336 -18 b 810 96 619 -18 736 26 b 915 343 879 161 915 253 b 865 521 915 406 897 467 b 818 583 847 553 832 568 l 908 660 l 860 714 z m 211 174 b 151 343 196 192 151 243 b 492 632 151 517 303 632 b 626 611 528 632 576 628 b 696 578 661 600 678 589 z m 754 531 b 821 351 779 500 821 447 b 731 146 821 263 781 190 b 488 61 675 96 588 61 b 286 110 401 61 324 88 b 265 122 279 114 272 118 z "},"œ":{"ha":1650,"x_min":0,"x_max":0,"o":"m 1519 240 b 1431 136 1506 217 1482 176 b 1210 63 1403 115 1331 63 b 940 178 1131 63 1015 86 b 882 335 889 243 883 307 l 1592 335 b 1478 597 1581 417 1568 510 b 1178 708 1375 696 1240 708 b 897 611 1075 708 972 679 b 828 524 857 576 840 547 b 707 649 803 564 774 610 b 474 708 643 688 560 708 b 56 344 243 708 56 571 b 465 -15 56 125 233 -15 b 699 44 582 -15 658 22 b 835 178 782 92 814 143 b 935 65 846 158 872 111 b 1201 -17 1007 13 1101 -17 b 1450 50 1288 -17 1376 6 b 1592 188 1524 96 1563 149 z m 883 411 b 958 551 899 486 942 535 b 1174 631 1032 626 1126 631 b 1393 558 1225 631 1315 624 b 1481 411 1460 503 1474 440 z m 469 632 b 776 343 635 632 776 521 b 468 63 776 175 643 63 b 226 157 363 63 275 103 b 160 344 185 203 160 272 b 469 632 160 521 299 632 z "},"ß":{"ha":983,"x_min":0,"x_max":0,"o":"m 100 0 l 188 0 l 188 693 b 257 868 190 751 193 819 b 483 924 315 911 421 924 b 679 886 544 924 626 913 b 765 765 738 857 765 814 b 668 636 765 707 726 660 b 558 617 633 622 596 619 b 413 614 510 614 465 614 l 413 539 b 504 540 443 540 474 540 b 772 467 611 540 707 536 b 828 294 790 447 828 403 b 613 61 828 164 757 61 b 490 96 568 61 521 74 b 436 228 442 135 438 193 l 347 228 b 369 110 347 199 347 157 b 607 -17 403 36 478 -17 b 922 301 860 -17 922 168 b 804 550 922 386 897 493 b 738 579 783 563 761 572 b 708 588 728 583 718 585 b 736 596 718 590 726 593 b 858 769 821 626 858 700 b 821 885 858 815 843 854 b 642 988 767 958 669 981 b 485 1006 590 1000 538 1006 b 103 757 351 1006 124 972 b 100 697 100 736 100 717 z "},"¹":{"ha":665,"x_min":0,"x_max":0,"o":"m 181 783 b 338 818 268 782 296 793 l 338 358 l 403 358 l 403 957 l 358 957 b 181 839 331 867 292 839 z "},"¬":{"ha":926,"x_min":0,"x_max":0,"o":"m 843 0 l 926 0 l 926 446 l 843 446 l 0 446 l 0 364 l 843 364 z "},"µ":{"ha":983,"x_min":0,"x_max":0,"o":"m 794 0 l 885 0 l 885 686 l 794 686 l 794 278 b 676 110 793 226 790 160 b 456 67 626 86 544 67 b 233 140 333 67 264 104 b 189 308 192 188 190 256 l 189 686 l 97 686 l 97 -260 l 189 -260 l 189 71 b 456 -18 242 8 333 -18 b 794 99 661 -18 753 63 z "},"™":{"ha":954,"x_min":0,"x_max":0,"o":"m 860 982 l 767 982 l 647 603 l 528 982 l 435 982 l 435 521 l 499 521 l 496 822 b 493 915 496 850 494 889 b 517 836 510 863 511 856 l 617 521 l 675 521 l 775 836 b 799 917 788 876 790 886 b 796 822 799 901 797 836 l 796 521 l 860 521 z m 249 924 l 396 924 l 396 982 l 32 982 l 32 924 l 183 924 l 183 521 l 249 521 z "},"Ð":{"ha":1186,"x_min":0,"x_max":0,"o":"m 115 0 l 560 0 b 921 79 633 0 800 0 b 1119 488 1036 154 1119 299 b 867 933 1119 658 1049 844 b 606 981 776 978 694 981 l 115 981 l 115 565 l 0 565 l 0 494 l 115 494 z m 213 899 l 607 899 b 933 763 679 899 831 897 b 1019 482 996 682 1019 578 b 904 178 1019 375 993 258 b 525 82 799 83 651 82 l 213 82 l 213 494 l 697 494 l 697 565 l 213 565 z "},"½":{"ha":1504,"x_min":0,"x_max":0,"o":"m 386 0 l 460 0 l 1014 956 l 940 956 z m 181 783 b 338 818 268 782 296 793 l 338 358 l 403 358 l 403 957 l 358 957 b 181 839 331 867 292 839 z m 976 374 b 999 467 978 422 990 453 b 1172 550 1029 524 1101 550 b 1351 404 1294 550 1351 478 b 1279 265 1351 347 1313 296 b 913 64 1206 197 1025 115 l 913 0 l 1426 0 l 1426 57 l 1024 57 b 1419 406 1233 153 1419 239 b 1171 608 1419 526 1314 608 b 1003 561 1101 608 1043 589 b 910 383 932 510 919 440 z "},"±":{"ha":926,"x_min":0,"x_max":0,"o":"m 506 526 l 869 526 l 869 608 l 506 608 l 506 964 l 424 964 l 424 608 l 57 608 l 57 526 l 424 526 l 424 171 l 506 171 z m 869 82 l 57 82 l 57 0 l 869 0 z "},"Þ":{"ha":1128,"x_min":0,"x_max":0,"o":"m 115 0 l 211 0 l 211 235 l 743 235 b 976 281 810 235 900 236 b 1103 508 1047 321 1103 399 b 1032 693 1103 578 1079 644 b 765 776 954 774 854 775 l 211 776 l 211 981 l 115 981 z m 775 694 b 985 592 850 693 940 690 b 1001 507 999 561 1001 531 b 915 350 1001 450 982 389 b 710 315 856 315 778 315 l 211 315 l 211 694 z "},"¼":{"ha":1504,"x_min":0,"x_max":0,"o":"m 414 0 l 489 0 l 1043 956 l 969 956 z m 181 783 b 338 818 268 782 296 793 l 338 358 l 403 358 l 403 957 l 358 957 b 181 839 331 867 292 839 z m 863 211 l 863 157 l 1235 157 l 1235 0 l 1300 0 l 1300 157 l 1428 157 l 1428 215 l 1300 215 l 1300 600 l 1232 600 z m 1235 215 l 942 215 l 1235 524 z "},"÷":{"ha":926,"x_min":0,"x_max":0,"o":"m 529 222 b 465 286 529 256 504 286 b 401 222 426 286 401 254 b 465 160 401 188 428 160 b 529 222 504 160 529 190 z m 529 583 b 465 647 529 617 504 647 b 401 583 426 647 401 615 b 465 521 401 549 428 521 b 529 583 504 521 529 551 z m 925 444 l 0 444 l 0 363 l 925 363 z "},"¦":{"ha":318,"x_min":0,"x_max":0,"o":"m 201 -243 l 201 243 l 118 243 l 118 -243 z m 201 938 l 118 938 l 118 451 l 201 451 z "},"°":{"ha":492,"x_min":0,"x_max":0,"o":"m 246 1039 b 42 835 133 1039 42 949 b 246 631 42 722 133 631 b 450 835 360 631 450 722 b 246 1039 450 947 360 1039 z m 246 956 b 367 835 313 956 367 901 b 246 714 367 768 313 714 b 125 835 178 714 125 768 b 246 956 125 901 178 956 z "},"þ":{"ha":983,"x_min":0,"x_max":0,"o":"m 192 981 l 103 981 l 103 -261 l 192 -261 l 192 106 b 504 -17 253 38 346 -17 b 917 344 718 -17 917 113 b 524 706 917 526 789 706 b 192 578 399 706 272 672 z m 501 624 b 814 346 714 625 814 490 b 499 68 814 160 665 68 b 249 164 392 68 297 107 b 193 340 197 222 193 297 b 274 549 193 393 199 481 b 501 624 319 589 396 624 z "},"¾":{"ha":1504,"x_min":0,"x_max":0,"o":"m 475 0 l 550 0 l 1103 954 l 1029 954 z m 861 211 l 861 157 l 1233 157 l 1233 0 l 1299 0 l 1299 157 l 1426 157 l 1426 215 l 1299 215 l 1299 600 l 1231 600 z m 1233 215 l 942 215 l 1233 524 z m 144 769 b 215 876 154 810 165 849 b 343 906 257 900 311 906 b 511 797 413 906 511 881 b 464 719 511 753 481 729 b 351 699 429 700 389 699 l 269 699 l 269 642 l 379 642 b 504 607 419 640 471 639 b 535 539 517 596 535 574 b 340 406 535 457 457 406 b 125 532 182 406 143 492 l 65 511 b 336 347 82 471 135 347 b 603 540 514 347 603 436 b 540 654 603 589 578 629 b 485 679 519 668 503 674 b 576 797 539 701 576 738 b 483 933 576 831 560 897 b 342 961 440 954 389 961 b 82 790 143 961 104 850 z "},"²":{"ha":665,"x_min":0,"x_max":0,"o":"m 138 732 b 160 825 139 781 151 811 b 333 908 190 882 263 908 b 513 763 456 908 513 836 b 440 624 513 706 474 654 b 74 422 367 556 186 474 l 74 358 l 588 358 l 588 415 l 185 415 b 581 764 394 511 581 597 b 332 967 581 885 475 967 b 164 919 263 967 204 947 b 71 742 93 868 81 799 z "},"®":{"ha":1157,"x_min":0,"x_max":0,"o":"m 379 801 l 379 183 l 469 183 l 469 471 b 671 367 592 471 650 471 b 686 268 674 351 683 282 b 711 183 692 239 697 211 l 815 183 b 769 363 788 239 783 272 b 669 499 757 439 736 475 b 808 647 746 510 808 561 b 714 786 808 706 776 763 b 569 801 676 800 642 801 z m 471 732 l 556 732 b 688 708 631 732 661 732 b 717 640 706 693 717 668 b 575 543 717 542 614 543 l 471 543 z m 1074 488 b 578 985 1075 758 864 985 b 83 490 311 985 83 775 b 576 -4 83 197 319 -4 b 1074 488 857 -4 1072 214 z m 1029 489 b 578 40 1028 239 832 40 b 128 490 331 40 128 238 b 579 940 128 738 325 940 b 1029 489 838 940 1031 736 z "},"−":{"ha":926,"x_min":0,"x_max":0,"o":"m 926 446 l 0 446 l 0 364 l 926 364 z "},"ð":{"ha":983,"x_min":0,"x_max":0,"o":"m 835 951 l 643 911 b 596 947 635 917 603 942 b 521 999 585 956 581 958 l 404 965 b 492 911 457 936 489 914 b 526 886 497 907 521 890 l 253 826 l 286 761 l 596 828 b 778 599 725 726 760 642 b 488 708 746 631 668 708 b 61 347 289 708 61 592 b 483 -18 61 143 206 -18 b 931 385 818 -18 931 196 b 710 851 931 565 844 732 l 869 888 z m 485 632 b 819 344 643 635 819 549 b 489 57 819 157 674 57 b 164 343 288 57 164 168 b 485 632 164 544 331 629 z "},"×":{"ha":926,"x_min":0,"x_max":0,"o":"m 808 115 l 521 404 l 808 690 l 751 749 l 463 461 l 175 749 l 117 690 l 404 404 l 117 115 l 175 58 l 463 346 l 751 58 z "},"³":{"ha":665,"x_min":0,"x_max":0,"o":"m 144 769 b 215 876 156 810 167 849 b 343 906 257 900 311 906 b 511 797 413 906 511 881 b 464 719 511 753 481 729 b 351 699 429 700 389 699 l 269 699 l 269 642 l 379 642 b 504 607 419 640 471 639 b 535 539 517 596 535 574 b 340 406 535 457 457 406 b 125 532 182 406 143 492 l 65 511 b 336 347 82 471 135 347 b 603 540 514 347 603 436 b 540 654 603 589 578 629 b 485 679 519 668 503 674 b 576 797 539 701 576 738 b 483 933 576 831 560 897 b 342 961 440 954 389 961 b 82 790 143 961 104 850 z "},"©":{"ha":1157,"x_min":0,"x_max":0,"o":"m 1074 488 b 578 985 1075 758 865 985 b 85 490 311 985 85 774 b 578 -4 85 197 321 -4 b 1074 488 858 -4 1072 214 z m 1029 488 b 579 40 1028 240 833 40 b 129 490 331 40 129 238 b 581 940 129 738 326 940 b 1029 488 839 940 1031 735 z m 789 351 b 590 249 764 321 703 249 b 349 492 461 249 349 350 b 589 736 349 636 461 736 b 789 632 701 736 761 665 l 847 686 b 589 814 778 769 697 814 b 268 490 407 814 268 675 b 588 171 268 301 413 171 b 847 301 661 171 767 196 z "},"Á":{"ha":1100,"x_min":0,"x_max":0,"o":"m 492 981 l 10 0 l 107 0 l 232 254 l 864 254 l 990 0 l 1092 0 l 597 981 z m 825 332 l 269 332 l 544 893 z m 497 1075 l 560 1075 l 769 1250 l 615 1250 z "},"Â":{"ha":1100,"x_min":0,"x_max":0,"o":"m 492 981 l 10 0 l 107 0 l 232 254 l 864 254 l 990 0 l 1092 0 l 597 981 z m 825 332 l 269 332 l 544 893 z m 340 1075 l 428 1075 l 551 1182 l 669 1075 l 758 1075 l 608 1250 l 500 1250 z "},"Ä":{"ha":1100,"x_min":0,"x_max":0,"o":"m 492 981 l 10 0 l 107 0 l 232 254 l 864 254 l 990 0 l 1092 0 l 597 981 z m 825 332 l 269 332 l 544 893 z m 718 1243 l 718 1108 l 818 1108 l 818 1243 z m 269 1108 l 369 1108 l 369 1243 l 269 1243 z "},"À":{"ha":1100,"x_min":0,"x_max":0,"o":"m 492 981 l 10 0 l 107 0 l 232 254 l 864 254 l 990 0 l 1092 0 l 597 981 z m 825 332 l 269 332 l 544 893 z m 535 1075 l 601 1075 l 482 1250 l 328 1250 z "},"Å":{"ha":1100,"x_min":0,"x_max":0,"o":"m 492 981 l 10 0 l 107 0 l 232 254 l 864 254 l 990 0 l 1092 0 l 597 981 z m 825 332 l 269 332 l 544 893 z m 539 1268 b 386 1149 454 1265 386 1219 b 546 1031 386 1075 456 1031 b 701 1154 642 1031 701 1083 b 539 1268 701 1211 654 1272 z m 540 1211 b 628 1149 586 1213 628 1194 b 543 1090 628 1104 578 1090 b 458 1149 481 1090 458 1121 b 540 1211 458 1176 479 1210 z "},"Ã":{"ha":1100,"x_min":0,"x_max":0,"o":"m 492 981 l 10 0 l 107 0 l 232 254 l 864 254 l 990 0 l 1092 0 l 597 981 z m 825 332 l 269 332 l 544 893 z m 303 1099 b 404 1156 329 1129 354 1156 b 435 1153 414 1156 425 1154 b 665 1099 511 1139 589 1099 b 839 1213 764 1099 810 1167 l 796 1229 b 700 1174 782 1208 760 1174 b 608 1193 671 1174 647 1181 b 439 1225 554 1210 497 1225 b 264 1122 349 1225 299 1165 z "},"Ç":{"ha":1128,"x_min":0,"x_max":0,"o":"m 1036 304 b 614 61 996 238 889 61 b 161 488 329 61 161 260 b 613 924 161 742 350 924 b 878 850 706 924 803 899 b 1014 696 950 801 986 740 l 1096 743 b 897 940 1060 800 1011 878 b 608 1011 806 990 704 1011 b 57 493 299 1011 57 792 b 289 60 57 296 160 142 b 538 -22 390 -6 490 -17 l 538 -135 b 644 -187 572 -135 644 -133 b 544 -236 644 -236 564 -236 b 460 -231 517 -236 488 -233 l 460 -275 b 568 -285 496 -281 533 -285 b 733 -179 722 -285 733 -203 b 686 -103 733 -149 718 -121 b 599 -83 656 -85 624 -85 l 599 -25 b 965 85 706 -25 836 -11 b 1121 265 1056 151 1094 218 z "},"É":{"ha":1157,"x_min":0,"x_max":0,"o":"m 115 0 l 1094 0 l 1094 82 l 211 82 l 211 474 l 990 474 l 990 556 l 211 556 l 211 899 l 1054 899 l 1054 981 l 115 981 z m 526 1075 l 589 1075 l 799 1250 l 644 1250 z "},"Ê":{"ha":1157,"x_min":0,"x_max":0,"o":"m 115 0 l 1094 0 l 1094 82 l 211 82 l 211 474 l 990 474 l 990 556 l 211 556 l 211 899 l 1054 899 l 1054 981 l 115 981 z m 369 1075 l 457 1075 l 581 1182 l 699 1075 l 788 1075 l 638 1250 l 529 1250 z "},"Ë":{"ha":1157,"x_min":0,"x_max":0,"o":"m 115 0 l 1094 0 l 1094 82 l 211 82 l 211 474 l 990 474 l 990 556 l 211 556 l 211 899 l 1054 899 l 1054 981 l 115 981 z m 757 1250 l 757 1115 l 857 1115 l 857 1250 z m 308 1115 l 408 1115 l 408 1250 l 308 1250 z "},"È":{"ha":1157,"x_min":0,"x_max":0,"o":"m 115 0 l 1094 0 l 1094 82 l 211 82 l 211 474 l 990 474 l 990 556 l 211 556 l 211 899 l 1054 899 l 1054 981 l 115 981 z m 578 1075 l 644 1075 l 525 1250 l 371 1250 z "},"Í":{"ha":318,"x_min":0,"x_max":0,"o":"m 114 0 l 207 0 l 207 981 l 114 981 z m 107 1075 l 169 1075 l 379 1250 l 225 1250 z "},"Î":{"ha":318,"x_min":0,"x_max":0,"o":"m 114 0 l 207 0 l 207 981 l 114 981 z m -50 1075 l 38 1075 l 161 1182 l 279 1075 l 368 1075 l 218 1250 l 110 1250 z "},"Ï":{"ha":318,"x_min":0,"x_max":0,"o":"m 114 0 l 207 0 l 207 981 l 114 981 z m 338 1250 l 338 1115 l 438 1115 l 438 1250 z m -111 1115 l -11 1115 l -11 1250 l -111 1250 z "},"Ì":{"ha":318,"x_min":0,"x_max":0,"o":"m 114 0 l 207 0 l 207 981 l 114 981 z m 144 1075 l 211 1075 l 92 1250 l -62 1250 z "},"Ñ":{"ha":1244,"x_min":0,"x_max":0,"o":"m 1043 981 l 1043 121 l 203 981 l 115 981 l 115 0 l 203 0 l 203 856 l 1043 0 l 1131 0 l 1131 981 z m 375 1099 b 476 1156 401 1129 426 1156 b 507 1153 486 1156 497 1154 b 738 1099 583 1139 661 1099 b 911 1213 836 1099 882 1167 l 868 1229 b 772 1174 854 1208 832 1174 b 681 1193 743 1174 719 1181 b 511 1225 626 1210 569 1225 b 336 1122 421 1225 371 1165 z "},"Ó":{"ha":1274,"x_min":0,"x_max":0,"o":"m 640 1011 b 58 492 283 1011 58 781 b 631 -26 58 194 288 -26 b 1217 493 990 -26 1217 210 b 640 1011 1217 744 1029 1008 z m 610 926 b 938 843 772 933 892 874 b 1110 499 1058 763 1110 622 b 639 57 1110 214 899 57 b 161 488 369 57 161 218 b 610 926 161 692 296 913 z m 583 1075 l 646 1075 l 856 1250 l 701 1250 z "},"Ô":{"ha":1274,"x_min":0,"x_max":0,"o":"m 640 1011 b 58 492 283 1011 58 781 b 631 -26 58 194 288 -26 b 1217 493 990 -26 1217 210 b 640 1011 1217 744 1029 1008 z m 610 926 b 938 843 772 933 892 874 b 1110 499 1058 763 1110 622 b 639 57 1110 214 899 57 b 161 488 369 57 161 218 b 610 926 161 692 296 913 z m 426 1075 l 514 1075 l 638 1182 l 756 1075 l 844 1075 l 694 1250 l 586 1250 z "},"Ö":{"ha":1274,"x_min":0,"x_max":0,"o":"m 640 1011 b 58 492 283 1011 58 781 b 631 -26 58 194 288 -26 b 1217 493 990 -26 1217 210 b 640 1011 1217 744 1029 1008 z m 610 926 b 938 843 772 933 892 874 b 1110 499 1058 763 1110 622 b 639 57 1110 214 899 57 b 161 488 369 57 161 218 b 610 926 161 692 296 913 z m 811 1243 l 811 1108 l 911 1108 l 911 1243 z m 363 1108 l 463 1108 l 463 1243 l 363 1243 z "},"Ò":{"ha":1274,"x_min":0,"x_max":0,"o":"m 640 1011 b 58 492 283 1011 58 781 b 631 -26 58 194 288 -26 b 1217 493 990 -26 1217 210 b 640 1011 1217 744 1029 1008 z m 610 926 b 938 843 772 933 892 874 b 1110 499 1058 763 1110 622 b 639 57 1110 214 899 57 b 161 488 369 57 161 218 b 610 926 161 692 296 913 z m 621 1075 l 688 1075 l 568 1250 l 414 1250 z "},"Õ":{"ha":1274,"x_min":0,"x_max":0,"o":"m 640 1011 b 58 492 283 1011 58 781 b 631 -26 58 194 288 -26 b 1217 493 990 -26 1217 210 b 640 1011 1217 744 1029 1008 z m 610 926 b 938 843 772 933 892 874 b 1110 499 1058 763 1110 622 b 639 57 1110 214 899 57 b 161 488 369 57 161 218 b 610 926 161 692 296 913 z m 389 1099 b 490 1156 415 1129 440 1156 b 521 1153 500 1156 511 1154 b 751 1099 597 1139 675 1099 b 925 1213 850 1099 896 1167 l 882 1229 b 786 1174 868 1208 846 1174 b 694 1193 757 1174 733 1181 b 525 1225 640 1210 583 1225 b 350 1122 435 1225 385 1165 z "},"Š":{"ha":1128,"x_min":0,"x_max":0,"o":"m 44 246 b 239 40 82 174 115 104 b 583 -25 317 0 408 -25 b 1018 150 856 -25 971 78 b 1061 292 1043 189 1061 239 b 917 500 1061 392 1001 463 b 697 551 863 524 785 538 b 361 600 643 560 408 590 b 221 726 300 613 221 643 b 565 922 221 842 357 922 b 944 765 826 922 914 806 l 1033 814 b 572 1007 918 953 760 1007 b 121 722 264 1007 121 869 b 243 538 121 638 167 574 b 443 490 296 513 360 503 b 625 467 503 482 564 474 b 960 286 836 439 960 413 b 575 61 960 151 804 61 b 413 76 521 61 465 65 b 147 285 233 114 181 206 z m 506 1075 l 618 1075 l 778 1250 l 688 1250 l 564 1143 l 447 1250 l 357 1250 z "},"Ú":{"ha":1215,"x_min":0,"x_max":0,"o":"m 110 389 b 607 -25 110 106 272 -25 b 1103 400 939 -25 1103 103 l 1103 982 l 1014 982 l 1014 414 b 607 64 1014 171 907 64 b 200 397 350 64 194 147 l 200 982 l 110 982 z m 554 1075 l 617 1075 l 826 1250 l 672 1250 z "},"Û":{"ha":1215,"x_min":0,"x_max":0,"o":"m 110 389 b 607 -25 110 106 272 -25 b 1103 400 939 -25 1103 103 l 1103 982 l 1014 982 l 1014 414 b 607 64 1014 171 907 64 b 200 397 350 64 194 147 l 200 982 l 110 982 z m 397 1075 l 485 1075 l 608 1182 l 726 1075 l 815 1075 l 665 1250 l 557 1250 z "},"Ü":{"ha":1215,"x_min":0,"x_max":0,"o":"m 110 389 b 607 -25 110 106 272 -25 b 1103 400 939 -25 1103 103 l 1103 982 l 1014 982 l 1014 414 b 607 64 1014 171 907 64 b 200 397 350 64 194 147 l 200 982 l 110 982 z m 783 1246 l 783 1111 l 883 1111 l 883 1246 z m 335 1111 l 435 1111 l 435 1246 l 335 1246 z "},"Ù":{"ha":1215,"x_min":0,"x_max":0,"o":"m 110 389 b 607 -25 110 106 272 -25 b 1103 400 939 -25 1103 103 l 1103 982 l 1014 982 l 1014 414 b 607 64 1014 171 907 64 b 200 397 350 64 194 147 l 200 982 l 110 982 z m 592 1075 l 658 1075 l 539 1250 l 385 1250 z "},"Ý":{"ha":1013,"x_min":0,"x_max":0,"o":"m 515 476 l 125 981 l 8 981 l 471 397 l 471 0 l 560 0 l 560 397 l 1004 981 l 894 981 z m 454 1075 l 517 1075 l 726 1250 l 572 1250 z "},"Ÿ":{"ha":1013,"x_min":0,"x_max":0,"o":"m 515 476 l 125 981 l 8 981 l 471 397 l 471 0 l 560 0 l 560 397 l 1004 981 l 894 981 z m 685 1250 l 685 1115 l 785 1115 l 785 1250 z m 236 1115 l 336 1115 l 336 1250 l 236 1250 z "},"Ž":{"ha":1042,"x_min":0,"x_max":0,"o":"m 76 981 l 76 899 l 915 899 l 0 79 l 0 0 l 1017 0 l 1017 82 l 135 82 l 1042 894 l 1042 981 z m 492 1075 l 604 1075 l 764 1250 l 674 1250 l 550 1143 l 433 1250 l 343 1250 z "},"á":{"ha":926,"x_min":0,"x_max":0,"o":"m 926 71 b 813 172 828 65 813 97 l 813 465 b 721 653 813 504 808 603 b 440 706 646 696 528 706 b 101 575 310 706 175 688 b 65 486 81 543 71 511 l 161 482 b 444 622 189 564 226 622 b 728 450 726 622 728 532 b 140 374 460 447 239 444 b 57 206 94 340 57 281 b 164 22 57 124 101 58 b 364 -17 185 11 238 -17 b 729 101 571 -17 675 61 b 843 -4 740 28 765 -4 b 926 1 872 -4 899 -1 z m 729 372 b 685 174 731 288 728 224 b 375 65 635 117 514 65 b 156 204 313 65 156 78 b 214 308 156 240 172 279 b 729 372 296 369 521 372 z m 411 771 l 471 771 l 671 972 l 519 972 z "},"â":{"ha":926,"x_min":0,"x_max":0,"o":"m 926 71 b 813 172 828 65 813 97 l 813 465 b 721 653 813 504 808 603 b 440 706 646 696 528 706 b 101 575 310 706 175 688 b 65 486 81 543 71 511 l 161 482 b 444 622 189 564 226 622 b 728 450 726 622 728 532 b 140 374 460 447 239 444 b 57 206 94 340 57 281 b 164 22 57 124 101 58 b 364 -17 185 11 238 -17 b 729 101 571 -17 675 61 b 843 -4 740 28 765 -4 b 926 1 872 -4 899 -1 z m 729 372 b 685 174 731 288 728 224 b 375 65 635 117 514 65 b 156 204 313 65 156 78 b 214 308 156 240 172 279 b 729 372 296 369 521 372 z m 424 946 l 274 763 l 349 763 l 464 881 l 576 763 l 649 763 l 506 946 z "},"ä":{"ha":926,"x_min":0,"x_max":0,"o":"m 926 71 b 813 172 828 65 813 97 l 813 465 b 721 653 813 504 808 603 b 440 706 646 696 528 706 b 101 575 310 706 175 688 b 65 486 81 543 71 511 l 161 482 b 444 622 189 564 226 622 b 728 450 726 622 728 532 b 140 374 460 447 239 444 b 57 206 94 340 57 281 b 164 22 57 124 101 58 b 364 -17 185 11 238 -17 b 729 101 571 -17 675 61 b 843 -4 740 28 765 -4 b 926 1 872 -4 899 -1 z m 729 372 b 685 174 731 288 728 224 b 375 65 635 117 514 65 b 156 204 313 65 156 78 b 214 308 156 240 172 279 b 729 372 296 369 521 372 z m 225 915 l 225 782 l 322 782 l 322 915 z m 593 782 l 690 782 l 690 915 l 593 915 z "},"à":{"ha":926,"x_min":0,"x_max":0,"o":"m 926 71 b 813 172 828 65 813 97 l 813 465 b 721 653 813 504 808 603 b 440 706 646 696 528 706 b 101 575 310 706 175 688 b 65 486 81 543 71 511 l 161 482 b 444 622 189 564 226 622 b 728 450 726 622 728 532 b 140 374 460 447 239 444 b 57 206 94 340 57 281 b 164 22 57 124 101 58 b 364 -17 185 11 238 -17 b 729 101 571 -17 675 61 b 843 -4 740 28 765 -4 b 926 1 872 -4 899 -1 z m 729 372 b 685 174 731 288 728 224 b 375 65 635 117 514 65 b 156 204 313 65 156 78 b 214 308 156 240 172 279 b 729 372 296 369 521 372 z m 257 971 l 454 769 l 514 769 l 410 971 z "},"å":{"ha":926,"x_min":0,"x_max":0,"o":"m 926 71 b 813 172 828 65 813 97 l 813 465 b 721 653 813 504 808 603 b 440 706 646 696 528 706 b 101 575 310 706 175 688 b 65 486 81 543 71 511 l 161 482 b 444 622 189 564 226 622 b 728 450 726 622 728 532 b 140 374 460 447 239 444 b 57 206 94 340 57 281 b 164 22 57 124 101 58 b 364 -17 185 11 238 -17 b 729 101 571 -17 675 61 b 843 -4 740 28 765 -4 b 926 1 872 -4 899 -1 z m 729 372 b 685 174 731 288 728 224 b 375 65 635 117 514 65 b 156 204 313 65 156 78 b 214 308 156 240 172 279 b 729 372 296 369 521 372 z m 449 994 b 301 874 376 990 301 951 b 460 756 301 793 386 756 b 618 876 540 756 618 800 b 449 994 618 951 547 1000 z m 457 938 b 544 876 517 939 544 906 b 458 817 544 847 521 817 b 374 876 388 817 374 856 b 457 938 374 911 410 936 z "},"ã":{"ha":926,"x_min":0,"x_max":0,"o":"m 926 71 b 813 172 828 65 813 97 l 813 465 b 721 653 813 504 808 603 b 440 706 646 696 528 706 b 101 575 310 706 175 688 b 65 486 81 543 71 511 l 161 482 b 444 622 189 564 226 622 b 728 450 726 622 728 532 b 140 374 460 447 239 444 b 57 206 94 340 57 281 b 164 22 57 124 101 58 b 364 -17 185 11 238 -17 b 729 101 571 -17 675 61 b 843 -4 740 28 765 -4 b 926 1 872 -4 899 -1 z m 729 372 b 685 174 731 288 728 224 b 375 65 635 117 514 65 b 156 204 313 65 156 78 b 214 308 156 240 172 279 b 729 372 296 369 521 372 z m 215 829 b 318 886 235 853 263 886 b 346 883 326 886 336 885 b 488 843 394 875 440 857 b 579 828 518 835 549 828 b 753 942 682 828 732 910 l 710 958 b 617 901 696 938 669 901 b 549 914 594 901 569 908 b 354 957 428 947 394 957 b 176 854 264 957 213 897 z "},"ç":{"ha":926,"x_min":0,"x_max":0,"o":"m 808 268 b 719 144 794 239 771 186 b 478 65 664 99 572 65 b 158 349 296 65 158 175 b 482 635 158 489 258 635 b 796 457 682 635 760 514 l 886 496 b 747 642 864 531 828 590 b 483 714 667 693 568 714 b 56 347 285 714 56 601 b 181 75 56 229 100 140 b 436 -15 278 -3 383 -11 l 436 -135 b 543 -187 471 -135 543 -133 b 443 -236 543 -236 463 -236 b 358 -231 415 -236 386 -233 l 358 -275 b 467 -285 394 -281 432 -285 b 632 -179 621 -285 632 -203 b 585 -103 632 -149 617 -121 b 497 -83 554 -85 522 -85 l 497 -15 b 900 233 760 -4 853 153 z "},"é":{"ha":926,"x_min":0,"x_max":0,"o":"m 797 240 b 746 169 785 218 774 199 b 554 68 719 142 663 88 b 486 63 533 64 510 63 b 161 335 326 63 172 153 l 871 335 b 763 590 865 397 856 497 b 456 708 663 690 531 708 b 158 597 331 708 221 660 b 65 360 108 546 65 464 b 478 -17 65 142 242 -17 b 725 47 553 -17 647 1 b 871 189 801 93 844 153 z m 164 411 b 226 539 168 433 178 485 b 451 632 297 618 383 632 b 644 578 546 632 604 604 b 760 411 728 524 749 457 z m 411 771 l 471 771 l 671 972 l 519 972 z "},"ê":{"ha":926,"x_min":0,"x_max":0,"o":"m 797 240 b 746 169 785 218 774 199 b 554 68 719 142 663 88 b 486 63 533 64 510 63 b 161 335 326 63 172 153 l 871 335 b 763 590 865 397 856 497 b 456 708 663 690 531 708 b 158 597 331 708 221 660 b 65 360 108 546 65 464 b 478 -17 65 142 242 -17 b 725 47 553 -17 647 1 b 871 189 801 93 844 153 z m 164 411 b 226 539 168 433 178 485 b 451 632 297 618 383 632 b 644 578 546 632 604 604 b 760 411 728 524 749 457 z m 424 946 l 274 763 l 349 763 l 464 881 l 576 763 l 649 763 l 506 946 z "},"ë":{"ha":926,"x_min":0,"x_max":0,"o":"m 797 240 b 746 169 785 218 774 199 b 554 68 719 142 663 88 b 486 63 533 64 510 63 b 161 335 326 63 172 153 l 871 335 b 763 590 865 397 856 497 b 456 708 663 690 531 708 b 158 597 331 708 221 660 b 65 360 108 546 65 464 b 478 -17 65 142 242 -17 b 725 47 553 -17 647 1 b 871 189 801 93 844 153 z m 164 411 b 226 539 168 433 178 485 b 451 632 297 618 383 632 b 644 578 546 632 604 604 b 760 411 728 524 749 457 z m 232 924 l 232 790 l 329 790 l 329 924 z m 600 790 l 697 790 l 697 924 l 600 924 z "},"è":{"ha":926,"x_min":0,"x_max":0,"o":"m 797 240 b 746 169 785 218 774 199 b 554 68 719 142 663 88 b 486 63 533 64 510 63 b 161 335 326 63 172 153 l 871 335 b 763 590 865 397 856 497 b 456 708 663 690 531 708 b 158 597 331 708 221 660 b 65 360 108 546 65 464 b 478 -17 65 142 242 -17 b 725 47 553 -17 647 1 b 871 189 801 93 844 153 z m 164 411 b 226 539 168 433 178 485 b 451 632 297 618 383 632 b 644 578 546 632 604 604 b 760 411 728 524 749 457 z m 257 971 l 454 769 l 514 769 l 410 971 z "},"í":{"ha":289,"x_min":0,"x_max":0,"o":"m 99 0 l 190 0 l 190 686 l 99 686 z m 93 771 l 153 771 l 353 972 l 201 972 z "},"î":{"ha":289,"x_min":0,"x_max":0,"o":"m 99 0 l 190 0 l 190 686 l 99 686 z m 106 946 l -44 763 l 31 763 l 146 881 l 258 763 l 331 763 l 188 946 z "},"ï":{"ha":289,"x_min":0,"x_max":0,"o":"m 99 0 l 190 0 l 190 686 l 99 686 z m -86 924 l -86 790 l 11 790 l 11 924 z m 282 790 l 379 790 l 379 924 l 282 924 z "},"ì":{"ha":289,"x_min":0,"x_max":0,"o":"m 99 0 l 190 0 l 190 686 l 99 686 z m -61 971 l 136 769 l 196 769 l 92 971 z "},"ñ":{"ha":983,"x_min":0,"x_max":0,"o":"m 886 379 b 754 651 885 464 882 581 b 513 706 696 685 606 706 b 192 590 307 706 228 626 l 192 686 l 99 686 l 99 0 l 192 0 l 192 385 b 240 529 192 449 197 485 b 501 618 304 596 407 618 b 794 374 788 618 794 468 l 794 0 l 886 0 z m 246 829 b 349 886 265 853 293 886 b 376 883 357 886 367 885 b 518 843 425 875 471 857 b 610 828 549 835 579 828 b 783 942 713 828 763 910 l 740 958 b 647 901 726 938 700 901 b 579 914 625 901 600 908 b 385 957 458 947 425 957 b 207 854 294 957 243 897 z "},"ó":{"ha":983,"x_min":0,"x_max":0,"o":"m 508 708 b 60 342 233 713 60 557 b 489 -19 60 151 208 -19 b 922 338 744 -19 922 132 b 508 708 922 513 799 704 z m 485 633 b 819 343 658 636 819 536 b 488 58 819 168 685 58 b 164 342 308 58 164 154 b 485 633 164 525 307 629 z m 442 771 l 501 771 l 701 972 l 550 972 z "},"ô":{"ha":983,"x_min":0,"x_max":0,"o":"m 508 708 b 60 342 233 713 60 557 b 489 -19 60 151 208 -19 b 922 338 744 -19 922 132 b 508 708 922 513 799 704 z m 485 633 b 819 343 658 636 819 536 b 488 58 819 168 685 58 b 164 342 308 58 164 154 b 485 633 164 525 307 629 z m 454 946 l 304 763 l 379 763 l 494 881 l 607 763 l 679 763 l 536 946 z "},"ö":{"ha":983,"x_min":0,"x_max":0,"o":"m 508 708 b 60 342 233 713 60 557 b 489 -19 60 151 208 -19 b 922 338 744 -19 922 132 b 508 708 922 513 799 704 z m 485 633 b 819 343 658 636 819 536 b 488 58 819 168 685 58 b 164 342 308 58 164 154 b 485 633 164 525 307 629 z m 257 915 l 257 782 l 354 782 l 354 915 z m 625 782 l 722 782 l 722 915 l 625 915 z "},"ò":{"ha":983,"x_min":0,"x_max":0,"o":"m 508 708 b 60 342 233 713 60 557 b 489 -19 60 151 208 -19 b 922 338 744 -19 922 132 b 508 708 922 513 799 704 z m 485 633 b 819 343 658 636 819 536 b 488 58 819 168 685 58 b 164 342 308 58 164 154 b 485 633 164 525 307 629 z m 288 971 l 485 769 l 544 769 l 440 971 z "},"õ":{"ha":983,"x_min":0,"x_max":0,"o":"m 508 708 b 60 342 233 713 60 557 b 489 -19 60 151 208 -19 b 922 338 744 -19 922 132 b 508 708 922 513 799 704 z m 485 633 b 819 343 658 636 819 536 b 488 58 819 168 685 58 b 164 342 308 58 164 154 b 485 633 164 525 307 629 z m 246 829 b 349 886 265 853 293 886 b 376 883 357 886 367 885 b 518 843 425 875 471 857 b 610 828 549 835 579 828 b 783 942 713 828 763 910 l 740 958 b 647 901 726 938 700 901 b 579 914 625 901 600 908 b 385 957 458 947 425 957 b 207 854 294 957 243 897 z "},"š":{"ha":868,"x_min":0,"x_max":0,"o":"m 42 168 b 456 -17 92 11 293 -17 b 733 50 563 -17 663 0 b 792 113 757 67 778 88 b 817 206 807 139 817 171 b 696 369 817 269 783 338 b 546 396 668 379 628 389 b 340 407 478 401 408 403 b 188 444 250 413 214 417 b 167 500 175 458 167 478 b 218 583 167 508 167 551 b 418 625 275 621 374 625 b 654 576 478 625 592 617 b 700 524 683 558 693 538 l 801 544 b 697 656 788 572 763 619 b 422 706 622 694 511 706 b 225 681 371 706 292 701 b 93 582 197 672 131 649 b 71 490 76 550 71 517 b 181 335 71 401 131 356 b 388 310 232 315 297 313 b 544 300 440 307 492 304 b 697 263 628 294 669 288 b 724 203 719 242 724 217 b 699 139 724 179 713 156 b 449 65 656 89 554 65 b 228 106 379 65 285 76 b 140 192 169 133 153 168 z m 478 763 l 626 946 l 551 946 l 436 828 l 324 946 l 250 946 l 393 763 z "},"ú":{"ha":983,"x_min":0,"x_max":0,"o":"m 794 278 b 728 139 792 226 793 188 b 457 67 654 83 533 67 b 233 140 331 67 263 106 b 189 311 189 193 189 263 l 189 688 l 97 688 l 97 318 b 272 10 101 278 74 75 b 456 -18 351 -17 426 -18 b 794 100 661 -18 754 64 l 794 0 l 885 0 l 885 688 l 794 688 z m 442 771 l 501 771 l 701 972 l 550 972 z "},"û":{"ha":983,"x_min":0,"x_max":0,"o":"m 794 278 b 728 139 792 226 793 188 b 457 67 654 83 533 67 b 233 140 331 67 263 106 b 189 311 189 193 189 263 l 189 688 l 97 688 l 97 318 b 272 10 101 278 74 75 b 456 -18 351 -17 426 -18 b 794 100 661 -18 754 64 l 794 0 l 885 0 l 885 688 l 794 688 z m 454 946 l 304 763 l 379 763 l 494 881 l 607 763 l 679 763 l 536 946 z "},"ü":{"ha":983,"x_min":0,"x_max":0,"o":"m 794 278 b 728 139 792 226 793 188 b 457 67 654 83 533 67 b 233 140 331 67 263 106 b 189 311 189 193 189 263 l 189 688 l 97 688 l 97 318 b 272 10 101 278 74 75 b 456 -18 351 -17 426 -18 b 794 100 661 -18 754 64 l 794 0 l 885 0 l 885 688 l 794 688 z m 258 915 l 258 782 l 356 782 l 356 915 z m 626 782 l 724 782 l 724 915 l 626 915 z "},"ù":{"ha":983,"x_min":0,"x_max":0,"o":"m 794 278 b 728 139 792 226 793 188 b 457 67 654 83 533 67 b 233 140 331 67 263 106 b 189 311 189 193 189 263 l 189 688 l 97 688 l 97 318 b 272 10 101 278 74 75 b 456 -18 351 -17 426 -18 b 794 100 661 -18 754 64 l 794 0 l 885 0 l 885 688 l 794 688 z m 288 971 l 485 769 l 544 769 l 440 971 z "},"ý":{"ha":781,"x_min":0,"x_max":0,"o":"m 417 64 l 111 688 l 0 688 l 368 -37 b 153 -192 338 -117 306 -192 b 15 -167 89 -192 58 -182 l 15 -253 b 157 -269 63 -262 99 -269 b 454 -51 361 -269 393 -196 l 778 688 l 679 688 z m 340 771 l 400 771 l 600 972 l 449 972 z "},"ÿ":{"ha":781,"x_min":0,"x_max":0,"o":"m 417 64 l 111 688 l 0 688 l 368 -37 b 153 -192 338 -117 306 -192 b 15 -167 89 -192 58 -182 l 15 -253 b 157 -269 63 -262 99 -269 b 454 -51 361 -269 393 -196 l 778 688 l 679 688 z m 161 924 l 161 790 l 258 790 l 258 924 z m 529 790 l 626 790 l 626 924 l 529 924 z "},"ž":{"ha":781,"x_min":0,"x_max":0,"o":"m 758 76 l 143 76 l 758 621 l 758 686 l 60 686 l 60 610 l 626 610 l 15 74 l 15 0 l 758 0 z m 451 763 l 600 946 l 525 946 l 410 828 l 297 946 l 224 946 l 367 763 z "},"€":{"ha":1013,"x_min":0,"x_max":0,"o":"m 935 878 b 628 972 879 924 768 972 b 169 611 340 972 208 792 l 82 611 l 47 535 l 161 535 b 158 485 160 522 158 506 b 161 428 158 465 160 440 l 82 428 l 47 351 l 169 351 b 629 -14 217 117 379 -14 b 935 79 772 -14 885 36 l 935 185 b 638 74 867 124 769 74 b 269 351 431 74 304 189 l 738 351 l 771 428 l 254 428 b 251 485 253 440 251 461 b 254 535 251 503 253 522 l 821 535 l 854 611 l 269 611 b 635 885 296 746 413 885 b 935 774 769 885 874 832 z "}}}
